<svg width="12" height="14" viewBox="0 0 12 14" fill="none" xmlns="http://www.w3.org/2000/svg">
<path d="M10.2307 2.15381H3.76919C3.3407 2.15381 2.9299 2.324 2.62689 2.62689C2.324 2.92989 2.15381 3.3407 2.15381 3.76919V12.3846C2.15381 12.8131 2.324 13.2239 2.62689 13.5269C2.92989 13.8298 3.3407 14 3.76919 14H10.2307C10.6592 14 11.07 13.8298 11.373 13.5269C11.6759 13.2239 11.8461 12.8131 11.8461 12.3846V3.76919C11.8461 3.3407 11.6759 2.9299 11.373 2.62689C11.07 2.324 10.6592 2.15381 10.2307 2.15381ZM10.7692 12.3846C10.7692 12.5274 10.7125 12.6644 10.6115 12.7653C10.5105 12.8663 10.3735 12.923 10.2307 12.923H3.76919C3.62641 12.923 3.48938 12.8663 3.38842 12.7653C3.28746 12.6644 3.23073 12.5274 3.23073 12.3846V3.76919C3.23073 3.62641 3.28746 3.48938 3.38842 3.38842C3.48938 3.28746 3.62641 3.23073 3.76919 3.23073H10.2307C10.3735 3.23073 10.5105 3.28746 10.6115 3.38842C10.7125 3.48938 10.7692 3.62641 10.7692 3.76919V12.3846Z" fill="#343A40"/>
<path d="M1.07692 1.61538C1.07692 1.4726 1.13366 1.33558 1.23462 1.23462C1.33558 1.13366 1.4726 1.07692 1.61538 1.07692H7C7.19243 1.07692 7.37019 0.97428 7.46634 0.807692C7.56249 0.641105 7.56249 0.435815 7.46634 0.269231C7.37019 0.102646 7.19242 0 7 0H1.61538C1.18689 0 0.776092 0.170191 0.473077 0.473077C0.170191 0.776083 0 1.18689 0 1.61538V8.07692C0 8.26935 0.102643 8.44711 0.269231 8.54326C0.435819 8.63942 0.641108 8.63942 0.807692 8.54326C0.974277 8.44711 1.07692 8.26935 1.07692 8.07692V1.61538Z" fill="#343A40"/>
</svg>
