<svg width="18" height="21" viewBox="0 0 18 21" fill="none" xmlns="http://www.w3.org/2000/svg">
<path d="M15.278 3.21665H12.8655V2.41249C12.8655 1.77266 12.6114 1.15903 12.1589 0.706601C11.7065 0.254172 11.0929 0 10.453 0H7.2364C6.59657 0 5.98294 0.254172 5.53051 0.706601C5.07808 1.15903 4.82391 1.77266 4.82391 2.41249V3.21665H2.41142C1.84302 3.21557 1.29258 3.41569 0.857586 3.78157C0.422596 4.14745 0.13113 4.65547 0.0348123 5.21565C-0.0615054 5.77584 0.0435408 6.35203 0.331346 6.84219C0.619151 7.33234 1.07114 7.70482 1.60726 7.89366V16.8874C1.60854 17.9534 2.03257 18.9754 2.78634 19.7291C3.54011 20.4829 4.56208 20.9069 5.62807 20.9082H12.0614C13.1274 20.9069 14.1493 20.4829 14.9031 19.7291C15.6569 18.9754 16.0809 17.9534 16.0822 16.8874V7.89366C16.6183 7.70482 17.0703 7.33234 17.3581 6.84219C17.6459 6.35203 17.751 5.77584 17.6546 5.21565C17.5583 4.65547 17.2668 4.14745 16.8319 3.78157C16.3969 3.41569 15.8464 3.21557 15.278 3.21665ZM6.43224 2.41249C6.43224 2.19921 6.51696 1.99467 6.66777 1.84386C6.81858 1.69305 7.02312 1.60832 7.2364 1.60832H10.453C10.6663 1.60832 10.8709 1.69305 11.0217 1.84386C11.1725 1.99467 11.2572 2.19921 11.2572 2.41249V3.21665H6.43224V2.41249ZM14.4739 16.8874C14.4739 17.5272 14.2197 18.1409 13.7673 18.5933C13.3148 19.0457 12.7012 19.2999 12.0614 19.2999H5.62807C4.98824 19.2999 4.37462 19.0457 3.92219 18.5933C3.46976 18.1409 3.21559 17.5272 3.21559 16.8874V8.04162H14.4739V16.8874ZM15.278 6.4333H2.41142C2.19815 6.4333 1.9936 6.34857 1.84279 6.19776C1.69199 6.04695 1.60726 5.84241 1.60726 5.62914C1.60726 5.41586 1.69199 5.21132 1.84279 5.06051C1.9936 4.9097 2.19815 4.82497 2.41142 4.82497H15.278C15.4913 4.82497 15.6958 4.9097 15.8467 5.06051C15.9975 5.21132 16.0822 5.41586 16.0822 5.62914C16.0822 5.84241 15.9975 6.04695 15.8467 6.19776C15.6958 6.34857 15.4913 6.4333 15.278 6.4333Z" fill="#343A40"/>
<path d="M6.43258 16.8874C6.64586 16.8874 6.8504 16.8027 7.00121 16.6519C7.15202 16.5011 7.23674 16.2965 7.23674 16.0832V11.2583C7.23674 11.045 7.15202 10.8404 7.00121 10.6896C6.8504 10.5388 6.64586 10.4541 6.43258 10.4541C6.2193 10.4541 6.01476 10.5388 5.86395 10.6896C5.71314 10.8404 5.62842 11.045 5.62842 11.2583V16.0832C5.62842 16.2965 5.71314 16.5011 5.86395 16.6519C6.01476 16.8027 6.2193 16.8874 6.43258 16.8874Z" fill="#343A40"/>
<path d="M11.2583 16.8874C11.4715 16.8874 11.6761 16.8027 11.8269 16.6519C11.9777 16.5011 12.0624 16.2965 12.0624 16.0832V11.2583C12.0624 11.045 11.9777 10.8404 11.8269 10.6896C11.6761 10.5388 11.4715 10.4541 11.2583 10.4541C11.045 10.4541 10.8404 10.5388 10.6896 10.6896C10.5388 10.8404 10.4541 11.045 10.4541 11.2583V16.0832C10.4541 16.2965 10.5388 16.5011 10.6896 16.6519C10.8404 16.8027 11.045 16.8874 11.2583 16.8874Z" fill="#343A40"/>
</svg>
