<svg width="20" height="16" viewBox="0 0 20 16" fill="none" xmlns="http://www.w3.org/2000/svg">
<path d="M1 13C0.447771 13 0 12.5522 0 12C0 11.4872 0.386057 11.0645 0.883371 11.0067L1 11H12C12 9.3432 13.3432 7.99999 15 7.99999H17C18.6568 7.99999 20 9.3432 20 11V13C20 14.6568 18.6568 16 17 16H15C13.3432 16 12 14.6568 12 13L1 13ZM17 10H15C14.4872 10 14.0645 10.3861 14.0067 10.8834L14 11V13C14 13.5128 14.386 13.9355 14.8834 13.9933L15 14H17C17.5128 14 17.9355 13.614 17.9933 13.1166L18 13V11C18 10.4872 17.6139 10.0645 17.1166 10.0067L17 10ZM5 0C6.6568 0 8 1.3432 8 3H19C19.5522 3 20 3.44777 20 4C20 4.51283 19.6139 4.93549 19.1166 4.99332L19 5.00001H8C8 6.65682 6.6568 8.00002 5 8.00002H3C1.3432 8.00002 0 6.65682 0 5.00001V3.00001C0 1.34321 1.3432 1.08572e-05 3 1.08572e-05L5 0ZM5 2H3C2.48717 2 2.06451 2.38606 2.00669 2.88337L1.99999 3V5C1.99999 5.51283 2.38605 5.93549 2.88336 5.99332L2.99999 6.00001H4.99999C5.51282 6.00001 5.93547 5.61396 5.9933 5.11664L6 5.00001V3.00001C6 2.48718 5.61394 2.06453 5.11663 2.0067L5 2Z" fill="white"/>
</svg>
