<svg width="29" height="28" viewBox="0 0 29 28" fill="none" xmlns="http://www.w3.org/2000/svg">
<path d="M28.2277 11.2581H27.1V11.2H14.5V16.8H22.4121C21.2578 20.0599 18.1561 22.4 14.5 22.4C9.8611 22.4 6.1 18.6389 6.1 14C6.1 9.3611 9.8611 5.6 14.5 5.6C16.6413 5.6 18.5894 6.4078 20.0727 7.7273L24.0326 3.7674C21.5322 1.4371 18.1876 0 14.5 0C6.7685 0 0.5 6.2685 0.5 14C0.5 21.7315 6.7685 28 14.5 28C22.2315 28 28.5 21.7315 28.5 14C28.5 13.0613 28.4034 12.145 28.2277 11.2581Z" fill="#FFC107"/>
<path d="M2.11401 7.4837L6.71371 10.857C7.95831 7.7756 10.9725 5.6 14.4998 5.6C16.6411 5.6 18.5892 6.4078 20.0725 7.7273L24.0324 3.7674C21.532 1.4371 18.1874 0 14.4998 0C9.12241 0 4.45901 3.0359 2.11401 7.4837Z" fill="#FF3D00"/>
<path d="M14.5001 28C18.1163 28 21.4021 26.6161 23.8864 24.3656L19.5534 20.699C18.1478 21.7637 16.4006 22.4 14.5001 22.4C10.8587 22.4 7.76682 20.0781 6.60202 16.8378L2.03662 20.3553C4.35362 24.8892 9.05902 28 14.5001 28Z" fill="#4CAF50"/>
<path d="M28.2277 11.2581H27.1V11.2H14.5V16.8H22.4121C21.8577 18.3659 20.8504 19.7162 19.5512 20.6997C19.5519 20.699 19.5526 20.699 19.5533 20.6983L23.8863 24.3649C23.5797 24.6435 28.5 21 28.5 14C28.5 13.0613 28.4034 12.145 28.2277 11.2581Z" fill="#1976D2"/>
</svg>
