<svg width="343" height="273" viewBox="0 0 343 273" fill="none" xmlns="http://www.w3.org/2000/svg">
<path fill-rule="evenodd" clip-rule="evenodd" d="M320.814 72.4414C319.926 72.627 319.07 72.9139 318.176 73.0843C317.115 73.2855 316.053 73.4704 314.984 73.6255C314.266 73.7297 313.617 73.8933 313.146 74.493C312.268 75.6099 311.385 77.5354 312.593 78.721C313.162 79.2778 314.158 79.1025 314.888 79.3342C315.701 79.5924 316.459 79.8793 317.311 79.9905C321.286 80.5066 325.239 81.4673 329.128 82.424C330.902 82.8604 332.673 83.464 334.369 84.1448C335.238 84.4934 336.087 84.8997 336.864 85.4246C337.527 85.8734 338.285 86.3158 338.82 86.9187C336.693 87.2797 334.305 87.3222 332.179 86.9609C331.112 86.7799 330.038 86.8305 328.962 86.749C327.884 86.6676 326.805 86.5911 325.728 86.4961C324.683 86.4037 323.645 86.2882 322.607 86.1327C322.223 86.0753 321.834 86.0183 321.445 86.0686C321.219 86.098 321.076 86.1667 320.87 86.1199C320.697 86.0806 320.511 85.945 320.338 85.8869C319.541 85.6209 318.692 85.6722 317.866 85.6247C317.247 85.5893 316.587 85.4034 315.968 85.5404C314.879 85.7806 314.382 87.3101 314.133 88.2477C313.976 88.8386 314.101 89.5729 314.292 90.1566C314.511 90.8265 314.915 90.8141 315.454 91.118C316.226 91.5526 316.903 92.0276 317.735 92.3666C318.432 92.651 319.144 92.8979 319.834 93.2004C321.353 93.8653 322.999 94.4423 324.43 95.2815C325.205 95.737 325.939 96.1922 326.753 96.5864C327.485 96.9414 328.191 97.3473 328.86 97.811C330.224 98.7575 331.412 99.9342 332.424 101.248C331.954 101.248 331.571 101.309 331.121 101.149C330.569 100.955 330.053 100.668 329.494 100.492C328.428 100.155 327.384 99.8382 326.33 99.4546C325.278 99.0709 324.199 98.6909 323.125 98.3735C322.574 98.2109 322.017 98.1383 321.459 98.0189C320.966 97.913 320.529 97.692 320.063 97.5049C317.828 96.6077 315.436 96.1759 313.124 95.528C310.872 94.8972 308.646 94.2426 306.348 93.7984C305.278 93.5915 304.206 93.3963 303.126 93.2479C302.068 93.1027 301.147 93.249 300.125 93.52C299.05 93.8055 298.074 94.0697 297.047 94.5217C296.314 94.8447 295.226 95.1278 294.653 95.6849C294.311 96.0186 294.088 96.3488 293.652 96.5925C293.321 96.7777 292.962 96.907 292.606 97.0359C291.799 97.3282 291.036 97.7125 290.235 98.015C289.73 98.2056 289.208 98.3558 288.668 98.3905C288.152 98.4234 287.971 98.5485 287.508 98.7745C286.784 99.1266 285.99 99.292 285.227 99.5325C284.467 99.7723 283.602 100.406 282.778 100.117C281.979 99.8364 281.466 98.8063 280.989 98.167C279.733 96.4862 278.653 94.8214 277.954 92.8331C277.213 90.7245 276.506 88.6041 275.789 86.4873C275.416 85.3864 275.042 84.2865 274.661 83.1881C274.45 82.5785 274.012 81.9228 274.489 81.3599C275.043 80.7068 275.241 79.6781 275.813 78.947C276.382 78.2205 277.024 77.5524 277.627 76.8546C277.98 76.4473 278.324 76.0314 278.638 75.5932C278.895 75.2341 279.085 74.7938 279.371 74.4604C279.63 74.1576 280.012 73.9794 280.296 73.6996C280.605 73.3953 280.881 73.0347 281.164 72.706C281.909 71.8431 282.617 70.9285 283.411 70.111C284.066 69.4358 284.815 68.8351 285.489 68.1702C286.947 66.7303 288.496 65.3864 290.007 64.0039C291.479 62.6582 292.985 61.3554 294.417 59.9775C295.763 58.6821 297.378 57.635 298.887 56.5522C300.54 55.3659 302.125 54.1137 303.905 53.1134C305.608 52.1559 307.322 51.8676 309.222 51.5839C309.034 51.953 308.901 52.3437 308.652 52.6773C308.284 53.1694 307.803 53.6089 307.386 54.0613C306.541 54.9819 305.689 55.8979 304.834 56.8093C303.168 58.5836 301.423 60.286 299.806 62.1056C298.518 63.5554 297.517 65.0354 296.985 66.9191C296.704 67.9123 296.565 68.9778 297.167 69.8907C297.628 70.5881 298.386 70.5343 299.15 70.4659C301.121 70.2895 303.074 69.619 305.023 69.2711C307.191 68.884 309.407 68.789 311.594 68.556C312.692 68.4387 313.777 68.1366 314.875 68.0537C315.37 68.0165 315.859 68.1174 316.354 68.0763C316.846 68.0353 317.34 67.9152 317.825 67.8252C318.844 67.636 319.771 67.5284 320.803 67.6658C321.829 67.8025 322.81 67.6956 323.836 67.6112C326.004 67.4324 328.226 67.6665 330.382 67.9003C332.446 68.1242 334.493 68.3728 336.509 68.8652C334.398 69.4022 332.291 69.953 330.168 70.4425C328 70.9423 325.762 71.2781 323.634 71.9232C322.709 72.2037 321.757 72.2441 320.814 72.4414ZM153.687 117.175C153.918 116.336 154.152 115.433 154.446 114.595C154.514 114.401 154.618 114.25 154.728 114.107C154.528 114.439 154.388 114.769 154.253 115.215C154.056 115.866 153.875 116.522 153.687 117.175ZM153.224 118.035C153.272 117.929 153.325 117.825 153.383 117.723C153.325 117.825 153.272 117.929 153.224 118.035ZM153.055 118.451C153.092 118.348 153.133 118.246 153.175 118.145C153.133 118.246 153.091 118.348 153.055 118.451ZM153.641 117.336C153.561 117.439 153.49 117.547 153.424 117.656C153.49 117.547 153.56 117.439 153.641 117.336V117.336ZM282.877 109.498C282.035 110.035 281.216 110.374 280.526 111.117C278.971 112.792 277.296 114.377 275.8 116.103C275.198 116.796 274.895 117.655 274.223 118.3C273.459 119.033 272.528 119.604 271.664 120.208C269.745 121.549 267.844 122.999 265.819 124.176C265.365 124.439 264.906 124.713 264.437 124.949C264.129 125.104 263.741 125.188 263.471 125.408C263.214 125.617 263.11 125.927 262.83 126.13C262.624 126.281 262.376 126.403 262.16 126.54C260.384 127.665 258.596 128.769 256.797 129.857C255.039 130.919 253.28 131.996 251.559 133.118C250.645 133.715 249.781 134.385 248.862 134.973C248.113 135.453 247.332 135.879 246.598 136.38C245.819 136.912 245.093 137.457 244.241 137.874C243.417 138.277 242.56 138.611 241.74 139.022C241.257 139.263 240.819 139.557 240.359 139.835C240.057 140.017 239.805 139.99 239.478 140.102C238.523 140.429 237.666 140.995 236.692 141.297C232.645 142.551 228.732 140.762 225.204 138.86C223.426 137.901 221.807 136.673 220.103 135.592C219.359 135.12 218.429 134.777 217.748 134.222C217.405 133.942 217.273 133.648 216.872 133.429C216.509 133.229 216.178 133.03 215.851 132.775C214.236 131.518 212.728 130.228 211.286 128.772C210.499 127.977 209.713 127.18 208.946 126.367C208.344 125.73 207.876 124.956 207.321 124.272C205.986 122.629 204.691 120.961 203.403 119.281C202.779 118.465 202.16 117.644 201.534 116.829C201.116 116.286 200.486 115.749 200.342 115.046C200.21 114.399 200.59 113.78 200.902 113.246C201.372 112.442 201.821 111.644 202.136 110.764C202.61 109.441 203.334 106.906 201.886 105.956C201.354 106.841 200.68 107.627 200.106 108.483C199.529 109.345 199.28 110.435 198.586 111.203C197.858 112.009 196.888 112.594 196.124 113.38C195.362 114.164 194.665 115.007 193.927 115.813C193.155 116.657 192.335 117.455 191.522 118.259C190.758 119.015 189.885 119.623 189.024 120.265C188.123 120.938 187.195 121.537 186.227 122.108C185.809 122.355 185.378 122.658 184.92 122.823C184.431 122.998 184.003 123.104 183.533 123.347C181.621 124.336 179.694 125.286 177.753 126.215C177.232 126.465 176.683 126.812 176.123 126.951C175.908 127.004 175.785 126.955 175.549 127.031C175.3 127.11 175.052 127.25 174.813 127.356C173.817 127.796 172.8 128.135 171.768 128.48C169.621 129.199 167.441 129.856 165.318 130.641C163.33 131.377 161.397 132.172 159.349 132.742C157.331 133.303 155.2 133.397 153.122 133.6C152.564 133.655 151.909 133.598 151.372 133.754C150.891 133.894 150.624 133.996 150.1 133.954C149.172 133.88 148.305 134.056 147.384 134.198C148.786 131.438 149.514 128.296 150.529 125.374C150.797 124.601 151.123 123.88 151.346 123.094C151.545 122.391 151.834 121.717 152.183 121.075C152.608 120.293 152.738 119.388 153.022 118.549C152.801 119.209 152.681 119.911 152.472 120.572C152.763 120.016 153.076 119.472 153.354 118.909C153.644 118.321 153.64 117.971 153.644 117.338C154.397 117.425 154.425 116.651 154.542 116.099C154.718 115.259 154.904 114.421 155.085 113.583C155.176 113.39 155.145 113.071 155.193 112.861C155.251 112.611 155.346 112.372 155.431 112.132C156.089 110.27 156.811 108.44 157.288 106.52C157.814 104.403 158.274 102.267 158.748 100.138C158.999 99.0075 159.332 97.8556 159.442 96.7012C159.494 96.1479 159.776 94.3634 158.993 94.1147C158.387 93.9224 157.738 95.7675 157.581 96.1738C157.197 97.161 156.834 98.156 156.469 99.1503C156.142 100.039 155.888 100.937 155.524 101.813C155.155 102.698 155.026 103.621 154.7 104.52C154.508 105.048 154.199 105.436 153.988 105.941C153.835 106.309 153.778 106.71 153.652 107.088C153.39 107.871 152.984 108.636 152.689 109.416C152.311 110.411 151.846 111.37 151.432 112.35C151.053 113.247 150.837 114.192 150.482 115.091C150.139 115.955 149.609 116.726 149.268 117.597C148.894 118.555 148.554 119.525 148.184 120.484C147.421 122.463 146.649 124.427 146.05 126.464C145.901 126.973 145.646 127.474 145.521 127.927C145.408 128.339 145.207 128.665 145.045 129.074C144.756 129.809 144.634 130.635 144.487 131.408V131.409L144.531 131.158C144.226 131.171 143.899 131.237 143.686 130.964C143.444 130.654 143.511 130.051 143.466 129.678C143.107 129.725 143.247 129.887 143.286 130.211C143.306 130.379 143.326 130.546 143.346 130.713L143.497 131.969C143.611 131.901 143.852 131.511 143.95 131.5C144.1 131.483 144.264 131.89 144.333 132.092C144.308 132.166 144.277 132.24 144.238 132.315C144.143 132.501 144.052 132.63 143.98 132.832C143.845 133.209 143.743 133.592 143.552 133.947C143.458 134.12 143.351 134.287 143.224 134.438C143.128 134.55 142.817 134.735 142.764 134.853C142.633 135.148 142.833 135.885 142.814 136.228C142.79 136.675 142.719 137.153 142.523 137.561C142.441 137.732 142.292 137.836 142.216 137.984C142.107 138.192 142.102 138.3 142.077 138.57C141.988 139.531 141.62 140.432 141.287 141.329C140.914 142.337 140.623 143.371 140.283 144.39C139.963 145.354 139.552 146.281 139.213 147.238C138.818 148.351 138.466 149.48 138.096 150.601C137.819 151.441 137.396 152.188 137.099 153.013C136.794 153.859 136.365 154.619 136.217 155.498C136.053 156.471 135.541 157.445 135.171 158.356C134.863 159.117 134.223 159.925 134.096 160.736C134.037 161.116 134.131 161.471 134.005 161.849C133.897 162.177 133.689 162.457 133.55 162.771C133.36 163.203 133.502 163.603 133.371 164.044C133.257 164.428 132.997 164.698 132.788 165.026C132.418 165.605 132.544 166.276 132.163 166.88C131.628 167.732 131.438 168.687 131.151 169.655C131.01 170.13 130.905 170.619 130.778 171.098C130.728 171.289 130.703 171.669 130.602 171.844C130.475 172.066 130.259 171.979 130.149 172.106C130.054 172.217 130.034 172.574 129.992 172.716C129.859 173.166 129.67 173.602 129.487 174.034C129.094 174.963 128.643 175.866 128.302 176.816C127.947 177.809 127.59 178.802 127.233 179.796C127.064 180.268 126.899 180.742 126.716 181.21C126.537 181.669 126.349 181.809 126.048 182.16C125.752 182.505 125.63 182.989 125.352 183.355C125.091 183.698 124.916 183.95 124.802 184.377C124.587 185.181 124.429 185.988 124.093 186.756C123.245 188.697 122.188 190.544 121.337 192.488C120.446 194.525 119.599 196.584 118.827 198.669C118.102 200.627 117.638 202.657 116.897 204.607C116.163 206.538 115.532 208.498 114.809 210.435C114.059 212.446 113.304 214.454 112.631 216.492C112.389 217.228 112.226 217.959 112.069 218.699C112.118 218.366 112.165 218.039 112.221 217.732C111.505 218.93 110.847 220.233 111.161 221.667C111.357 221.392 111.505 221.079 111.624 220.747C111.579 220.918 111.529 221.085 111.459 221.234C111.258 221.66 111.07 221.985 110.934 222.457C110.632 223.502 110.326 224.546 110.03 225.593C109.887 226.097 109.753 226.606 109.585 227.103C109.436 227.544 109.112 227.928 108.975 228.359C108.822 228.841 108.874 229.432 108.756 229.934C108.652 230.376 108.501 230.807 108.274 231.201C108.098 231.508 107.846 231.775 107.707 232.102C107.537 232.501 107.639 232.897 107.593 233.317C107.535 233.839 107.348 234.336 107.277 234.856C107.208 235.356 107.441 235.667 107.53 236.145C107.623 236.645 107.435 236.975 107.286 237.432C107.159 237.82 107.085 238.234 106.994 238.631C106.955 238.801 106.927 239.335 106.806 239.448C106.718 239.53 106.212 239.543 106.085 239.566C105.608 239.649 105.132 239.742 104.646 239.741C103.625 239.74 102.58 239.593 101.566 239.484C99.5147 239.264 97.4513 238.94 95.484 238.303C93.6187 237.7 91.7381 236.818 90.007 235.897C88.2618 234.97 86.7135 233.698 85.2548 232.374C84.4632 231.656 83.7094 230.896 82.9552 230.139C82.5925 229.775 82.2305 229.41 81.8632 229.05C81.5706 228.763 81.1912 228.489 81.1618 228.046C81.1285 227.545 81.4898 226.972 81.6659 226.521C81.8231 226.118 81.9779 225.713 82.131 225.309C82.505 224.319 82.8723 223.327 83.2404 222.336C84.003 220.283 84.7607 218.229 85.524 216.176C86.2923 214.111 87.0812 212.091 88.0096 210.093C88.8983 208.18 89.707 206.252 90.4456 204.276C91.143 202.411 91.973 200.612 92.7639 198.786C93.1883 197.805 93.59 196.813 93.9151 195.795C94.1872 194.942 94.3891 194.136 94.8032 193.336C95.0696 192.821 95.2867 192.317 95.4486 191.759C95.5885 191.276 95.6671 190.862 95.9799 190.471C96.6398 189.646 97.0078 188.714 97.3472 187.721C98.0085 185.786 98.775 183.829 99.7006 182.004C100.638 180.155 101.676 178.38 102.531 176.489C103.391 174.586 104.561 172.875 105.366 170.943C107.026 166.956 109.314 163.286 110.997 159.31C112.654 155.394 114.627 151.632 116.32 147.731C117.204 145.693 118.057 143.642 118.864 141.571C119.248 140.583 119.628 139.593 120.026 138.611C120.385 137.724 121.007 137.044 121.262 136.128C121.524 135.19 121.943 134.468 122.387 133.624C122.845 132.752 123.082 131.701 123.444 130.783C124.236 128.777 125.064 126.783 125.911 124.799C126.781 122.758 127.711 120.747 128.615 118.721C128.956 117.955 129.148 117.132 129.499 116.372C129.674 115.993 130.029 115.673 130.186 115.31C130.259 115.143 130.241 114.909 130.302 114.729C130.383 114.488 130.534 114.246 130.646 114.018C131.553 112.161 132.557 110.377 133.384 108.481C134.229 106.544 135.094 104.608 135.837 102.629C136.571 100.673 137.5 98.8287 138.131 96.8309C138.432 95.8784 138.732 94.9216 138.962 93.9493C139.163 93.1016 139.541 91.8512 139.35 90.9805C139.232 90.4446 138.609 89.3529 137.978 89.8467C137.397 90.3019 137.048 91.2027 136.731 91.8427C136.254 92.8051 135.748 93.7559 135.34 94.7502C135.014 95.5443 134.72 96.3101 134.269 97.0441C133.181 98.8138 132.316 100.667 131.337 102.497C131.115 102.911 130.855 103.255 130.553 103.61C130.261 103.955 130.344 104.12 130.224 104.557C130.01 105.34 129.36 105.971 129.03 106.711C128.591 107.696 128.211 108.623 127.662 109.558C127.189 110.362 126.754 111.176 126.363 112.024C125.47 113.958 124.612 115.91 123.746 117.857C123.287 118.89 122.842 119.931 122.338 120.943C122.117 121.387 121.9 121.838 121.66 122.273C121.505 122.555 121.222 122.786 121.09 123.073C120.94 123.399 121.105 123.674 120.977 123.992C120.829 124.36 120.668 124.511 120.346 124.295C119.627 123.815 119.484 122.786 119.099 122.052C118.189 120.317 117.321 118.687 116.981 116.725C116.793 115.638 116.868 114.53 116.875 113.433C116.882 112.459 117.46 111.797 117.969 110.992C119.163 109.099 120.359 107.207 121.574 105.328C122.109 104.501 122.575 103.632 123.122 102.815C123.651 102.026 124.356 101.443 124.937 100.711C125.26 100.303 125.497 99.8548 125.843 99.4616C126.134 99.1301 126.412 98.7861 126.65 98.4142C127.103 97.7061 127.412 96.9399 127.909 96.2535C129.083 94.6322 130.277 93.0201 131.513 91.4463C132.172 90.6068 132.948 90.0869 133.764 89.4181C134.562 88.7631 135.277 88.0161 136.013 87.2928C137.43 85.8993 138.766 84.4441 140.343 83.2334C141.956 81.9947 143.624 80.8109 145.332 79.7057C146.174 79.1613 147.219 78.7508 147.895 78.014C148.174 77.7101 148.464 77.426 148.821 77.2142C149.165 77.0108 149.565 76.9566 149.899 76.7707C150.845 76.2439 151.715 75.3796 152.576 74.7201C153.433 74.0644 154.289 73.4081 155.146 72.7524C155.507 72.4758 156.186 72.1499 156.449 71.7946C156.596 71.5952 156.579 71.3167 156.746 71.1067C157.124 70.6317 157.872 70.5871 158.403 70.3827C159.422 69.9905 160.462 69.7794 161.532 69.5726C162.475 69.3901 163.375 68.9856 164.28 68.6686C166.261 67.9747 168.315 67.5571 170.404 67.369C169.465 70.1393 168.398 72.87 167.68 75.7105C167.389 76.8613 167.34 78.2053 166.855 79.2899C166.68 79.6806 166.214 80.0525 166.447 80.4935C166.619 80.8219 167.105 81.1768 167.416 81.3787C168.059 81.7974 168.854 81.333 169.486 81.0801C170.552 80.654 171.586 80.1056 172.728 79.9098C173.915 79.7068 174.912 78.5829 176.144 78.6013C176.659 78.6091 177.077 78.8553 177.463 79.1751C177.86 79.5052 178.309 79.7706 178.694 80.118C179.54 80.8817 180.524 81.5374 181.594 81.9607C181.966 82.1073 182.282 82.0312 182.626 82.316C182.882 82.5282 183.086 82.8335 183.429 82.9121C181.802 84.6496 180.225 86.3707 178.848 88.3204C178.173 89.2753 177.67 90.2087 177.301 91.3203C177.126 91.8456 176.965 92.2469 177.3 92.7548C177.486 93.0361 177.781 93.2674 178.128 93.2139C178.965 93.085 179.708 91.9547 180.173 91.3355C180.711 90.6164 181.303 89.9508 181.864 89.2495C183.029 87.7933 184.064 86.2655 185.515 85.0679C185.947 84.7116 186.384 84.307 186.863 84.0141C187.245 83.7803 187.515 83.9589 187.937 83.8845C188.997 83.6981 189.948 83.1438 190.894 82.6652C191.919 82.1467 192.944 81.6284 193.978 81.1254C194.518 80.8619 195.314 80.3051 195.949 80.5714C196.659 80.869 197.06 81.9802 197.449 82.5746C197.823 83.1459 198.16 83.6425 198.773 83.9674C199.779 84.5012 201.734 85.149 202.615 84.1221C203.863 82.6681 203.736 80.2867 203.629 78.5035C203.562 77.4104 203.429 76.3088 203.513 75.2135C203.586 74.25 203.7 73.289 203.794 72.327C205.568 73.7814 207.244 75.2578 208.714 77.0254C209.495 77.9662 210.306 78.8818 211.113 79.801C211.517 80.2612 211.881 80.6639 212.157 81.2059C212.394 81.6727 212.733 82.0765 213.086 82.4594C213.825 83.2593 214.329 84.3212 214.893 85.2542C215.437 86.1564 215.976 87.0622 216.504 87.9746C217.536 89.7592 218.502 91.5154 219.292 93.4208C219.702 94.4112 220.259 95.3105 220.679 96.2963C221.094 97.2743 221.504 98.2545 221.904 99.2392C222.134 99.8074 222.411 100.381 222.591 100.967C222.716 101.374 222.605 101.889 222.755 102.268C222.898 102.63 223.242 102.949 223.394 103.339C223.548 103.735 223.639 104.152 223.795 104.546C224.565 106.476 225.619 108.317 226.48 110.21C227.374 112.174 228.266 114.141 229.335 116.018C230.419 117.922 231.787 119.668 233.095 121.422C233.78 122.34 234.489 123.245 235.145 124.183C235.382 124.52 235.593 124.908 235.909 125.18C236.207 125.438 236.585 125.539 236.932 125.711C237.123 125.201 237.384 124.867 237.302 124.302C237.233 123.82 237.054 123.348 236.904 122.889C236.617 122 235.861 121.205 236.051 120.219C236.228 119.3 236.98 118.572 237.549 117.878C238.302 116.96 239.058 116.045 239.815 115.131C242.36 112.063 245.062 109.123 247.697 106.126C249.038 104.6 250.354 103.049 251.741 101.564C252.362 100.899 253.084 100.357 253.747 99.7362C254.29 99.2282 254.648 98.5864 255.161 98.0568C255.54 97.665 255.992 97.3792 256.378 96.9832C256.692 96.6612 257.006 96.3395 257.32 96.0179C258.011 95.3105 258.702 94.6028 259.386 93.8894C260.757 92.4615 262.036 90.9558 263.386 89.5098C265.992 86.7179 268.749 84.0371 271.47 81.3589C272.255 83.6794 272.905 86.098 273.467 88.4826C273.606 89.0692 273.663 89.6799 273.871 90.2441C274.076 90.7988 274.344 91.3326 274.559 91.8842C275.037 93.1098 275.403 94.4172 275.999 95.5851C277.129 97.8025 278.123 100.375 279.751 102.284C280.562 103.233 281.671 104.047 282.616 104.863C283.633 105.742 284.65 106.622 285.667 107.502C284.751 108.191 283.844 108.882 282.877 109.498ZM198.657 124.231C198.573 124.035 198.492 123.93 198.397 123.859C198.468 123.901 198.53 123.968 198.611 124.125C198.786 124.461 198.893 124.85 199.018 125.207C198.905 124.879 198.793 124.55 198.657 124.231ZM174.078 141.813C174.78 142.6 175.524 143.35 176.235 144.128C176.891 144.846 177.418 145.634 178.007 146.405C179.275 148.068 180.605 149.683 181.982 151.257C183.309 152.774 184.741 154.203 186.008 155.771C187.274 157.339 188.23 159.021 189.178 160.789C189.618 161.608 190.118 162.395 190.712 163.111C190.989 163.446 191.362 163.739 191.537 164.141C191.731 164.587 191.79 165.125 191.9 165.596C192.887 169.809 193.897 174.019 194.848 178.24C195.309 180.286 195.617 182.36 196.063 184.409C196.514 186.482 197.19 188.497 197.617 190.578C198.481 194.792 199.072 199.063 200 203.264C200.904 207.354 202.474 211.242 203.327 215.349C203.447 215.926 203.619 216.453 203.486 217.036C203.375 217.521 203.289 217.947 203.281 218.45C203.266 219.315 203.182 219.996 202.681 220.734C201.693 222.19 200.312 223.457 198.714 224.184C197.856 224.573 197.041 225.098 196.114 225.317C195.669 225.422 195.236 225.353 194.794 225.418C194.346 225.485 193.976 225.797 193.564 225.966C191.914 226.644 189.808 226.441 188.058 226.442C186.128 226.444 184.191 226.314 182.41 225.507C182.264 225.441 182.12 225.371 181.978 225.298C181.738 225.261 181.695 225.153 181.851 224.974C181.852 224.779 181.963 224.556 181.972 224.349C181.99 223.91 181.859 223.488 181.749 223.069C181.487 222.073 181.242 221.074 181.014 220.07C180.07 215.908 179.623 211.682 179.042 207.459C178.743 205.282 178.307 203.124 177.932 200.958C177.573 198.879 177.357 196.792 177.085 194.701C176.814 192.619 176.524 190.537 176.243 188.456C176.09 187.316 175.76 186.196 175.615 185.062C175.505 184.202 175.732 183.39 175.537 182.529C175.079 180.5 175.061 178.397 174.544 176.381C174.011 174.304 173.241 172.263 172.524 170.244C172.153 169.199 171.783 168.152 171.412 167.107C171.194 166.488 170.943 165.824 170.307 165.528C169.954 165.364 169.605 165.383 169.288 165.138C168.899 164.838 168.565 164.428 168.218 164.08C167.473 163.33 166.733 162.575 165.985 161.827C163.074 158.919 160.254 155.869 157.041 153.292C155.548 152.095 154.163 150.745 152.509 149.769C150.737 148.725 148.989 147.639 147.216 146.596C146.327 146.073 145.456 145.645 144.502 145.264C143.67 144.93 144.178 144.135 144.418 143.49C144.79 142.493 145.112 141.482 145.423 140.464C145.657 139.695 145.786 138.7 146.572 138.283C147.087 138.01 147.312 138.328 147.805 138.482C148.156 138.591 148.524 138.608 148.888 138.592C149.712 138.556 150.661 138.187 151.473 138.315C152.017 138.401 152.287 138.423 152.836 138.323C153.326 138.234 153.842 138.232 154.338 138.196C155.255 138.127 156.197 138.116 157.102 137.957C159.084 137.608 161.091 137.152 162.991 136.486C165.026 135.773 166.965 134.784 168.914 133.873C169.046 134.77 169.174 135.683 169.506 136.533C169.771 137.213 170.209 138.123 170.858 138.484C172.28 139.273 173.024 140.634 174.078 141.813ZM203.816 227.341C204.433 227.005 204.551 227.477 204.917 227.983C205.918 229.366 206.926 230.745 207.937 232.122C208.921 233.462 209.908 234.801 210.893 236.141C211.816 237.397 212.837 238.595 213.685 239.904C214.556 241.247 215.247 242.722 215.916 244.173C216.484 245.408 217.309 246.693 216.713 248.069C216.159 249.347 214.582 249.886 213.434 250.494C211.985 251.261 210.842 251.804 209.202 251.22C206.08 250.109 203.023 248.665 200.066 247.178C197.356 245.815 195.306 243.802 193.059 241.824C191.88 240.785 190.658 239.829 189.555 238.704C188.408 237.534 187.315 236.311 186.16 235.149C184.363 233.339 182.478 231.739 182.789 228.937C184.503 229.511 186.189 230.232 187.971 230.576C189.847 230.94 191.762 231.161 193.675 231.062C194.499 231.019 195.254 230.794 196.058 230.634C196.843 230.478 197.642 230.641 198.38 230.255C199.032 229.914 199.437 229.509 200.183 229.331C200.943 229.15 201.583 228.902 202.229 228.455C202.758 228.088 203.249 227.65 203.816 227.341ZM149.704 152.998C149.721 153.001 149.738 153.008 149.754 153.017C149.738 153.009 149.721 153.003 149.704 152.998ZM147.706 151.869C147.724 151.881 147.743 151.894 147.762 151.908C147.743 151.894 147.724 151.882 147.706 151.869ZM110.953 250.828C111.767 252.273 112.558 253.733 113.325 255.203C113.707 255.934 114.072 256.674 114.432 257.416C114.765 258.101 115.063 258.632 115.102 259.387C113.499 259.208 111.872 258.258 110.51 257.419C109.079 256.537 107.866 255.445 106.651 254.293C105.466 253.17 104.257 252.059 102.988 251.031C102.402 250.556 101.791 250.149 101.143 249.765C100.946 249.647 100.746 249.528 100.585 249.36C100.388 249.155 100.317 248.796 100.078 248.641C99.589 248.324 98.8257 248.796 98.3882 249.01C97.8091 249.294 97.2515 249.633 96.7663 250.06C96.2094 250.549 95.8368 251.176 95.3579 251.734C94.9084 252.258 94.4539 252.757 94.0498 253.318C93.1341 254.586 92.1387 255.935 90.9723 256.984C90.4403 257.462 89.7697 257.842 89.3135 258.382C88.8767 258.898 88.4159 259.356 87.8931 259.786C86.7358 260.738 85.7323 261.69 84.7391 262.813C83.6442 264.051 82.3995 265.16 81.2174 266.312C81.0361 265.582 81.3602 264.972 81.6822 264.342C82.0569 263.608 82.3222 262.814 82.6347 262.052C83.3165 260.389 84.0753 258.77 84.919 257.184C85.7033 255.709 86.5063 254.245 87.2661 252.757C87.8962 251.523 88.8721 249.999 88.571 248.557C88.4534 247.994 88.1474 247.145 87.5399 246.957C86.9338 246.769 86.3256 247.301 85.8375 247.59C84.4072 248.436 82.9255 249.102 81.3938 249.741C79.8661 250.379 78.3252 250.999 76.8549 251.762C75.4284 252.502 74.0824 253.387 72.6556 254.124C71.95 254.488 71.2029 254.759 70.5051 255.139C69.8332 255.506 69.1828 255.911 68.514 256.284C67.1925 257.021 65.8163 257.536 64.3141 257.752C65.3856 256.371 66.7954 255.359 68.1612 254.295C69.7538 253.056 71.3368 251.807 72.9815 250.636C74.4596 249.584 75.9633 248.571 77.4099 247.475C78.0865 246.962 78.7542 246.438 79.401 245.889C79.944 245.427 80.5281 244.965 80.6592 244.221C80.7771 243.552 80.4714 242.779 79.9036 242.392C79.3369 242.005 78.616 242.093 77.9806 242.184C76.1925 242.438 74.4497 242.984 72.7193 243.487C72.3212 243.603 71.9135 243.792 71.515 243.885C71.113 243.979 70.639 243.939 70.2274 243.96C69.4552 243.999 68.6844 244.04 67.9168 244.138C67.1149 244.241 66.2963 244.211 65.4993 244.339C64.7738 244.456 64.2694 244.848 63.5277 244.83C60.2342 244.751 57.1772 246.582 53.9188 246.582C55.862 245.442 57.8092 244.31 59.7627 243.187C60.6578 242.672 61.5894 242.214 62.4544 241.648C63.4119 241.022 64.291 240.311 65.2797 239.726C68.8166 237.632 72.7519 236.102 75.9782 233.523C76.7606 232.898 77.507 232.226 78.2622 231.568C78.4329 231.419 78.6578 231.142 78.8612 231.046C79.1849 230.895 79.0808 230.852 79.3652 231.143C79.678 231.463 79.8948 231.855 80.1541 232.218C81.1813 233.659 82.4427 234.922 83.867 235.971C85.5226 237.188 87.4301 237.928 89.2855 238.783C91.1558 239.645 93.0013 240.563 94.9605 241.212C96.9359 241.866 99.0276 242.202 101.09 242.445C103.274 242.703 105.31 242.557 107.477 242.287C107.603 243.917 107.768 245.297 108.536 246.774C109.261 248.167 110.183 249.459 110.953 250.828ZM119.164 126.674C119.323 126.709 119.526 126.722 119.679 126.778C119.546 126.745 119.378 126.744 119.28 126.716C119.239 126.705 119.203 126.689 119.164 126.674ZM119.748 127.615C119.811 127.46 119.904 127.286 119.92 127.127C119.91 127.285 119.825 127.46 119.748 127.615ZM101.092 155.194C98.6617 156.639 96.4836 158.457 94.1298 160.017C92.9545 160.796 91.7289 161.496 90.4721 162.134C89.8661 162.442 89.255 162.748 88.6228 163.001C88.0751 163.22 87.5477 163.573 86.9863 163.739C86.3763 163.92 85.7507 163.811 85.133 163.738C84.5967 163.675 84.0753 163.709 83.6339 163.354C82.8373 162.714 82.3205 161.434 81.8469 160.563C81.1696 159.318 80.3776 158.019 79.8926 156.687C79.4407 155.444 78.8445 154.307 78.6086 153.004C79.0262 152.312 78.9894 151.59 78.6391 150.884C78.4779 150.559 78.27 150.259 78.0794 149.952C77.8637 149.604 77.8732 149.523 77.4857 149.517C77.858 150.673 78.2303 151.828 78.6022 152.985C78.2349 151.848 77.7383 150.684 77.4857 149.517C77.2647 148.499 77.18 147.512 76.8166 146.519C76.631 146.015 76.3381 145.54 76.1935 145.024C76.0738 144.6 76.0766 144.151 76.02 143.716C75.862 142.503 75.5503 141.301 75.3586 140.09C74.9941 137.78 74.7596 135.444 74.3172 133.146C73.8621 130.783 73.2762 128.434 72.7601 126.083C72.5635 125.185 72.2114 124.416 73.0877 123.804C73.9265 123.219 74.8595 122.731 75.7454 122.221C76.5864 121.737 77.423 121.249 78.3178 120.872C79.0776 120.553 79.8083 120.248 80.4994 119.796C80.9294 119.514 81.3697 119.516 81.8557 119.359C82.357 119.197 82.8511 119.009 83.3477 118.834C84.2591 118.511 85.1691 118.186 86.0798 117.862C86.5778 117.684 87.6008 117.032 88.0673 117.526C88.3093 117.782 88.3373 118.316 88.4056 118.635C88.5175 119.161 88.6238 119.688 88.7272 120.215C89.1268 122.259 89.5101 124.311 89.8271 126.369C90.1385 128.389 90.3156 130.428 90.6294 132.447C90.7063 132.941 90.9564 133.551 90.9068 134.049C90.8706 134.416 90.6159 134.61 90.3648 134.849C89.7279 135.454 89.1279 136.089 88.5611 136.761C87.9341 137.503 87.3348 138.271 86.6572 138.97C85.9969 139.651 85.4231 140.263 84.947 141.093C84.5475 141.791 84.0133 142.444 84.1985 143.279C84.3434 143.928 84.5322 144.573 85.3023 144.306C86.1932 143.997 86.9632 143.124 87.6589 142.517C88.3426 141.921 89.0177 141.316 89.7145 140.736C90.4842 140.094 91.3446 139.553 92.0888 138.885C92.7352 138.305 93.2885 137.63 93.902 137.017C95.3731 135.545 96.9561 134.225 98.5211 132.859C99.2426 132.228 99.8175 131.458 100.471 130.762C101.116 130.077 101.816 129.447 102.493 128.794C103.962 127.379 105.49 125.954 106.858 124.441C107.513 123.716 108.216 123.039 108.876 122.319C109.149 122.022 109.351 121.63 109.61 121.347C109.86 121.074 110.245 120.898 110.526 120.642C111.753 119.522 112.437 117.964 113.647 116.822C113.969 117.526 114.196 118.246 114.432 118.983C114.65 119.663 114.814 120.457 115.196 121.066C115.374 121.349 115.677 121.554 115.831 121.849C115.978 122.132 115.939 122.468 116.044 122.766C116.243 123.337 116.654 123.938 116.961 124.459C117.304 125.041 117.788 125.571 118.247 126.064C118.365 126.191 118.484 126.304 118.615 126.402C118.561 126.372 118.509 126.342 118.453 126.314C118.818 126.935 119.148 127.221 119.741 127.629C119.724 127.665 119.707 127.699 119.692 127.732C119.385 128.396 119.04 129.011 118.799 129.705C118.382 130.905 117.77 132.027 117.376 133.236C117.164 133.886 117.081 134.557 116.773 135.174C116.502 135.716 116.149 136.212 115.884 136.757C115.264 138.034 114.86 139.434 114.371 140.764C113.867 142.138 113.284 143.466 112.66 144.789C112.041 146.102 111.463 147.435 110.915 148.779C110.668 149.384 110.472 150.061 110.082 150.595C109.661 151.172 109.053 151.322 108.413 151.55C105.876 152.458 103.404 153.818 101.092 155.194ZM70.6918 116.227C69.2554 115.012 67.2505 115.354 65.4865 115.347C63.4374 115.338 61.3978 115.741 59.3557 115.879C57.3147 116.016 55.2638 116.114 53.2174 116.071C51.3925 116.033 49.5739 115.862 47.7855 115.49C46.8996 115.306 46.0342 115.216 45.1352 115.138C44.5723 115.09 44.0509 114.919 43.7683 114.391C43.3946 113.695 43.4913 112.636 43.465 111.869C43.4388 111.118 43.3304 110.163 43.6298 109.455C43.9245 108.757 44.5801 108.414 45.2496 108.157C46.0714 107.842 46.8942 107.53 47.716 107.215C51.0457 105.94 54.4707 104.48 58.0578 104.173C59.0539 104.088 60.0539 104.08 61.0524 104.05C61.91 104.024 62.7027 103.816 63.5507 103.728C65.3201 103.543 67.0501 103.502 68.796 103.132C69.2756 103.03 69.5774 103.285 70.0648 103.363C70.4453 103.424 70.8317 103.413 71.2136 103.385C72.0028 103.329 72.7565 103.232 73.5489 103.299C74.4802 103.378 75.4178 103.427 76.3416 103.571C77.1715 103.701 77.9753 103.925 78.8123 104.02C79.7166 104.122 80.6315 104.162 81.5221 104.361C81.9723 104.461 82.6577 104.559 82.9226 104.991C83.2737 105.563 83.0101 106.662 82.9758 107.294C82.9276 108.184 82.8731 109.076 82.8823 109.968C82.8918 110.936 83.0367 111.873 83.2237 112.821C83.3583 113.504 83.647 114.306 83.4929 115.01C83.4079 115.398 83.1249 115.581 82.7232 115.518C82.4452 115.475 82.2167 115.203 81.9599 115.17C81.4608 115.106 81.9457 115.479 81.6599 115.799C81.4307 116.056 81.0509 115.984 80.7456 116.069C80.418 116.16 80.1147 116.32 79.8048 116.457C79.1024 116.766 78.3734 116.98 77.6816 117.321C76.1436 118.079 74.6821 118.978 73.2188 119.868C72.9737 119.139 72.7987 118.034 72.306 117.432C71.882 116.914 71.1976 116.655 70.6918 116.227ZM171.48 70.129C171.81 69.1989 172.244 68.2899 172.519 67.3424C172.617 67.0038 172.617 66.5227 172.964 66.3322C173.252 66.1735 173.774 66.2737 174.076 66.2758C174.636 66.2804 175.196 66.2741 175.755 66.2716C176.035 66.2705 176.44 66.2071 176.605 66.5001C176.775 66.8029 176.502 67.3583 176.496 67.6956C176.488 68.207 176.609 68.7076 176.738 69.1985C177.292 71.2909 177.866 73.3581 178.503 75.4307C177.868 75.1455 177.375 74.4665 176.651 74.3896C176.194 74.3411 175.843 74.6145 175.422 74.684C175.062 74.7435 174.703 74.7644 174.345 74.848C172.735 75.2224 171.272 76.0569 169.637 76.3502C169.713 75.7519 169.737 75.205 169.921 74.6255C170.081 74.1222 170.258 73.6231 170.431 73.1233C170.774 72.1233 171.128 71.1262 171.48 70.129ZM176.792 56.0906C177.565 55.7484 178.338 54.7559 177.614 53.9366C177.224 53.4949 176.235 53.7265 175.725 53.8317C175.008 53.9795 172.258 55.7732 171.92 54.5536C171.698 53.7531 172.096 52.5466 172.459 51.8435C172.69 51.3979 172.999 50.9629 173.369 50.6215C173.767 50.2545 173.931 50.3664 174.419 50.4206C175.225 50.5106 175.974 50.2616 176.504 51.0472C176.607 51.1995 176.629 51.4078 176.844 51.4397C177.011 51.4641 177.11 51.2576 177.278 51.2573C177.55 51.2566 177.58 51.445 177.686 51.6558C177.963 52.2066 178.371 53.2891 179.197 52.8382C180.031 52.383 180.081 50.9077 180.082 50.1128C180.084 48.8794 180.168 47.6474 180.234 46.4165C180.287 45.442 180.373 44.553 181.083 43.8183C181.753 43.1258 182.272 42.1623 183.087 41.6317C184.006 41.0324 185.202 41.0997 186.256 41.0189C187.473 40.9254 188.722 40.7915 189.941 40.9165C191.187 41.0444 192.373 41.1032 193.628 41.0465C194.854 40.9913 196.078 40.9151 197.306 40.8836C198.471 40.8545 199.689 40.9523 200.842 40.8269C201.311 40.7763 201.937 40.6055 202.247 41.0703C202.599 41.5981 202.57 42.5544 202.669 43.1626C201.4 42.9292 199.331 42.3437 198.844 44.136C198.697 44.6783 199.153 45.1622 199.553 45.4775C200.137 45.9383 200.955 45.9252 201.664 46.0244C202.06 46.08 202.698 46.0697 202.929 46.4672C203.153 46.8487 203.036 47.5606 203.062 47.98C203.17 49.7242 203.419 51.4556 203.601 53.1927C203.774 54.853 203.905 56.5568 203.654 58.2163C203.526 59.0671 203.177 59.8669 203.115 60.7245C203.077 61.2551 203.16 61.8573 202.675 62.2083C202.113 62.6153 201.145 62.6175 200.484 62.7627C199.613 62.9547 198.751 63.1856 197.894 63.4332C196.535 63.8261 194.878 64.0219 194.388 65.5412C193.865 67.1628 193.48 68.8344 192.974 70.4641C192.717 71.2909 192.358 72.0401 191.995 72.8239C191.854 73.1265 191.634 73.4778 191.663 73.8257C191.693 74.1927 191.95 74.5504 192.091 74.8777C192.401 74.7162 192.726 74.6259 192.99 74.3882C193.267 74.1402 193.488 73.7903 193.711 73.4931C194.173 72.8757 194.502 72.3458 195.164 71.9444C195.189 72.271 195.267 72.5512 195.11 72.8278C195 73.0244 194.744 73.2246 194.599 73.407C194.191 73.9188 193.798 74.4442 193.356 74.927C192.475 75.888 191.41 76.68 190.494 77.6126C189.575 78.5478 188.706 79.6452 187.586 80.3455C186.506 81.0202 185.353 81.5778 184.23 82.1757C185.217 79.9335 184.534 77.6764 183.36 75.6602C182.813 74.7219 182.148 73.8604 181.533 72.9674C181.046 72.2607 180.105 71.3125 180.128 70.4043C180.14 69.9211 180.469 69.5042 180.707 69.105C180.971 68.6626 181.175 68.1911 181.391 67.7235C181.829 66.7771 182.4 65.776 182.554 64.7343C182.688 63.8218 182.483 62.558 181.866 61.8276C181.617 61.5346 181.254 61.5629 180.932 61.3639C180.616 61.168 180.377 60.8754 180.117 60.6143C179.822 60.3186 179.461 60.1142 179.167 59.822C178.855 59.5113 178.637 59.1167 178.411 58.7427C177.876 57.856 177.328 56.9769 176.792 56.0906ZM180.184 36.3832C181.111 36.3995 181.604 36.9231 182.037 37.6698C181.747 38.1242 180.971 39.495 180.332 38.9488C180.213 38.8472 180.158 38.6286 180.014 38.511C179.879 38.4002 179.709 38.3421 179.552 38.2723C179.198 38.1157 178.797 37.9641 178.57 37.6237C178.036 36.8225 179.623 36.3744 180.184 36.3832ZM198.313 71.1609C198.479 71.1159 198.993 71.4531 199.157 71.5254C199.458 71.6589 199.833 71.7896 200.099 71.9908C200.366 72.1924 200.464 72.4931 200.647 72.7627C200.702 74.7814 200.829 76.8149 200.814 78.8393C200.758 76.8135 200.702 74.7874 200.646 72.7613C200.528 73.3174 200.322 73.8282 200.323 74.4027C200.323 74.9847 200.412 75.584 200.466 76.1621C200.569 77.2634 200.692 78.3629 200.804 79.4631C200.79 80.0975 200.761 80.7308 200.706 81.3617C199.901 80.2417 199.111 79.1078 198.304 77.9895C197.582 76.9906 196.639 76.9325 195.499 76.8412C196.245 75.3364 196.99 73.8321 197.735 72.327C197.821 72.1545 198.164 71.2013 198.313 71.1609ZM329.892 74.5823C331.095 74.2497 332.322 73.7878 333.561 73.6241C334.734 73.4697 335.776 72.96 336.908 72.6281C337.905 72.3362 338.915 72.0861 339.897 71.7446C340.644 71.4857 341.45 71.2296 342.038 70.677C342.647 70.1043 342.976 69.2137 342.863 68.3813C342.73 67.4093 342.013 67.2907 341.195 67.0119C337.027 65.5929 332.809 64.7474 328.46 64.1867C326.221 63.8976 323.958 63.5381 321.695 63.5848C320.523 63.6093 319.364 63.6737 318.193 63.5987C317.132 63.531 316.052 63.9281 315.009 63.7212C313.943 63.5101 312.947 63.7945 311.872 63.9405C310.73 64.0956 309.576 64.141 308.425 64.1941C307.379 64.2423 306.267 64.1998 305.25 64.4736C304.255 64.741 303.485 64.933 302.469 64.6018C303.531 63.4272 304.589 62.2491 305.655 61.078C307.843 58.6746 310.114 56.0917 311.438 53.0868C312.005 51.7985 312.281 49.9421 311.335 48.743C310.493 47.6768 308.655 47.8964 307.482 48.0714C305.975 48.2956 304.535 48.833 303.238 49.6275C301.987 50.3933 300.606 51.0189 299.468 51.9427C298.35 52.8502 297.062 53.4506 295.932 54.3411C294.767 55.2592 293.593 56.1483 292.414 57.0463C289.867 58.986 287.752 61.4507 285.341 63.5473C284.06 64.6617 282.867 65.8618 281.721 67.1136C281.178 67.7069 280.616 68.2917 280.152 68.9506C279.764 69.5017 279.426 70.0887 279.017 70.6257C278.526 71.2686 277.909 71.8045 277.392 72.4272C276.917 73.0004 276.481 73.6039 276.06 74.2171C275.616 74.8625 275.191 75.5192 274.751 76.1664C274.52 76.5061 274.299 77.0859 273.835 77.0264C273.18 76.9425 272.817 76.3796 272.104 76.7675C271.863 76.8982 271.713 77.121 271.512 77.2977C271.231 77.5453 270.908 77.6509 270.581 77.8153C269.912 78.1504 269.346 78.6484 268.747 79.0876C268.112 79.5531 267.461 79.937 266.872 80.4684C264.4 82.7017 262.119 85.0948 259.742 87.421C259.168 87.9831 258.566 88.5169 258.007 89.0957C257.563 89.5566 257.215 90.1039 256.768 90.5573C256.511 90.819 256.2 90.9249 255.927 91.1527C255.674 91.3659 255.461 91.7014 255.244 91.9504C254.722 92.5497 254.206 93.154 253.67 93.741C252.62 94.8922 251.459 95.8939 250.449 97.0884C249.418 98.3087 248.256 99.4244 247.202 100.63C244.984 103.166 242.901 105.756 240.861 108.438C239.85 109.768 238.712 111.003 237.747 112.367C236.83 113.663 236.054 115.053 235.362 116.48C235.167 116.883 234.916 118.083 234.196 117.658C233.939 117.506 233.767 117.059 233.607 116.811C233.392 116.474 233.178 116.137 232.964 115.799C232.034 114.328 231.039 112.856 230.304 111.275C228.89 108.232 227.483 105.213 226.319 102.063C225.731 100.468 225.059 98.9144 224.389 97.3533C223.726 95.8061 223.223 94.2018 222.576 92.6493C221.288 89.5608 219.595 86.6392 217.911 83.7541C216.368 81.1102 214.714 78.3827 212.568 76.1795C211.433 75.0148 210.541 73.679 209.341 72.5629C208.734 71.9972 208.106 71.4531 207.499 70.8864C207.06 70.4772 206.687 69.8698 206.145 69.5945C205.761 69.4001 205.351 69.4426 204.937 69.4592C204.615 69.472 204.259 69.3774 203.949 69.4057C203.669 69.4316 203.557 69.6742 203.287 69.7284C203.011 69.784 202.829 69.6562 202.612 69.5067C201.242 68.5613 199.37 68.1525 197.805 67.5857C198.795 66.9733 200.009 66.9506 201.114 66.6924C202.049 66.4735 202.921 66.0881 203.689 65.5093C205.382 64.2323 205.664 62.214 205.97 60.2389C206.323 57.9694 206.596 55.5501 206.294 53.2639C205.997 51.0199 205.685 48.7749 205.35 46.5366C205.187 45.4488 204.979 44.3879 204.655 43.3359C204.391 42.4783 204.052 41.5942 204.082 40.6849C204.097 40.2357 204.112 39.5422 204.452 39.217C204.703 38.9786 205.071 38.8511 205.337 38.6162C205.962 38.0668 206.464 37.3963 206.848 36.6602C207.162 36.0595 207.668 35.1786 207.369 34.4837C207.043 33.7297 206.007 33.5912 205.311 33.4109C203.253 32.8763 201.174 32.9623 199.082 32.668C198.078 32.5269 197.027 32.2341 196.019 32.2462C195.024 32.2579 194.032 32.2742 193.037 32.2622C190.869 32.2364 188.694 32.1732 186.533 32.3965C185.959 32.4558 185.397 32.5014 184.821 32.534C184.357 32.5608 184.024 32.7967 183.598 32.8704C183.338 32.9151 182.971 32.7749 182.71 32.7544C182.271 32.7202 181.822 32.7361 181.389 32.8173C180.47 32.9894 179.757 33.5749 178.846 33.758C178.137 33.9008 177.595 34.2874 177.232 34.9156C176.312 36.5079 176.262 38.7044 176.182 40.4872C176.087 42.5998 176.245 44.7205 176.134 46.8295C176.107 47.34 176.052 47.5458 175.513 47.4926C174.756 47.4179 174.092 47.2153 173.327 47.4172C171.869 47.8022 170.955 49.1291 170.386 50.4408C169.789 51.8159 169.469 53.3677 169.57 54.8689C169.659 56.1894 170.145 57.8971 171.601 58.2793C172.382 58.4848 173.165 58.1589 173.903 57.9272C174.596 57.709 175.228 57.0842 175.605 57.9605C176.367 59.7362 177.135 61.3426 178.354 62.8718C177.21 62.7935 176.069 62.6833 174.925 62.626C174.173 62.5881 173.107 62.3777 172.388 62.6709C171.965 62.8435 171.946 63.1406 171.644 63.4045C171.311 63.695 170.666 63.5707 170.253 63.5579C169.019 63.52 167.887 63.2954 166.638 63.4251C165.718 63.5204 164.888 63.9759 163.975 64.1491C162.864 64.3592 161.76 64.7998 160.712 65.2167C159.726 65.6096 158.758 66.0304 157.744 66.3474C156.709 66.6708 155.674 67.0034 154.687 67.4568C152.93 68.2644 151.438 69.5694 149.866 70.6777C149.453 70.9693 149.001 71.22 148.616 71.5484C148.3 71.8176 148.091 72.1732 147.786 72.4517C147.297 72.898 146.728 72.8757 146.199 73.1119C145.657 73.3539 145.135 73.8388 144.644 74.1742C144.2 74.4778 143.755 74.781 143.311 75.0842C142.466 75.6602 141.631 76.3452 140.719 76.8057C139.024 77.6615 137.695 79.0175 136.317 80.3072C134.831 81.6996 133.191 82.9121 131.76 84.3602C130.332 85.805 129.028 87.3381 127.88 89.0132C126.682 90.7588 125.672 92.6093 124.537 94.3931C124.019 95.2089 123.361 95.8716 122.756 96.6183C122.453 96.9927 122.168 97.3827 121.908 97.7887C121.677 98.1485 121.514 98.6076 121.17 98.8712C120.48 99.3975 119.792 99.7082 119.237 100.412C118.615 101.201 118.078 102.073 117.551 102.926C116.494 104.64 115.502 106.413 114.561 108.194C114.283 108.721 114.286 109.106 114.239 109.681C114.203 110.127 114.057 110.553 113.974 110.99C113.839 111.703 113.923 112.453 113.738 113.16C113.617 113.624 113.319 113.685 112.943 113.946C112.589 114.192 112.269 114.482 111.958 114.78C111.326 115.387 110.711 115.985 110.02 116.528C109.318 117.078 108.591 117.61 107.981 118.266C107.346 118.948 106.789 119.602 106.059 120.194C104.51 121.452 103.047 122.844 101.525 124.141C99.9443 125.488 98.5034 126.965 97.0493 128.445C95.5463 129.973 93.9559 131.407 92.3863 132.866C92.2631 131.135 92.1614 129.401 92.0172 127.67C91.8617 125.802 91.4409 123.98 91.069 122.146C90.7367 120.507 90.5157 118.754 89.9596 117.174C89.5781 116.092 88.8321 115.202 87.6784 114.935C87.1007 114.802 86.2265 115.075 85.947 114.432C85.6689 113.792 85.6423 112.819 85.5301 112.131C85.0349 109.097 86.0189 105.711 84.7515 102.808C84.2014 101.549 83.1784 100.881 81.962 100.342C80.3687 99.6348 78.6086 99.8105 76.919 99.4602C76.1478 99.3001 75.5205 98.8786 74.72 98.8428C73.912 98.8067 73.1026 98.8333 72.295 98.8644C71.4516 98.8963 70.6401 98.7266 69.8023 98.7295C69.0727 98.7316 68.4985 99.2165 67.7829 99.1028C66.9799 98.976 66.325 98.7783 65.5138 99.0114C64.7954 99.2176 64.1104 99.2792 63.364 99.2998C62.4448 99.326 61.5253 99.2392 60.6064 99.2835C59.762 99.3238 58.9565 99.5803 58.1195 99.683C56.3505 99.8998 54.6453 100.101 52.9188 100.577C51.2086 101.048 49.5845 101.727 47.9243 102.343C45.2631 103.33 42.2093 104.085 41.4765 107.222C41.0705 108.961 40.9894 110.835 41.208 112.605C41.3844 114.037 41.7092 115.623 42.5519 116.828C43.4523 118.117 44.946 118.507 46.3764 118.951C48.0157 119.459 49.6929 119.537 51.3712 119.841C53.1115 120.156 54.8518 120.408 56.6264 120.36C58.3866 120.313 60.1081 119.855 61.8629 119.706C63.6673 119.553 65.4649 119.341 67.2686 119.184C68.4811 119.078 70.7991 118.734 71.407 120.11C71.5989 120.546 71.8749 121.066 71.5228 121.455C71.1037 121.918 70.7336 122.393 70.3556 122.908C69.8427 123.607 69.4595 124.277 69.3068 125.139C69.157 125.984 69.1339 126.847 69.1215 127.703C69.0727 131.237 69.9823 134.819 70.8448 138.239C71.7417 141.798 72.7406 145.338 73.991 148.789C75.1822 152.078 76.0674 155.502 77.4804 158.705C78.1899 160.313 79.1169 161.74 80.0931 163.194C80.9142 164.416 81.6652 165.895 82.8745 166.783C83.8886 167.527 85.1861 167.893 86.4404 167.793C87.9441 167.673 89.3726 166.761 90.6893 166.094C93.8599 164.489 96.7893 162.319 99.6337 160.195C100.999 159.176 102.237 158.006 103.691 157.106C105.111 156.226 106.543 155.438 108.142 154.975C106.809 157.785 105.597 160.64 104.18 163.41C102.782 166.145 101.624 168.979 100.366 171.777C99.8483 172.928 99.0857 173.923 98.576 175.07C97.9922 176.384 97.4063 177.698 96.8247 179.013C95.7606 181.415 94.6278 183.805 93.6658 186.247C93.4472 186.802 93.5453 187.472 93.2623 187.959C92.9765 188.45 92.6644 188.879 92.4473 189.413C91.9808 190.561 91.6106 191.718 91.0793 192.842C89.9025 195.332 89.1551 198.011 88.0287 200.526C86.8995 203.049 85.8807 205.597 84.874 208.17C84.3806 209.432 83.8259 210.67 83.3651 211.944C82.94 213.119 82.5408 214.322 81.8472 215.373C80.3251 217.681 79.1452 220.174 77.9993 222.691C77.4588 223.879 76.982 225.058 76.9006 226.379C76.8269 227.568 77.5637 228.531 78.1584 229.488C77.0755 230.037 76.0781 230.745 74.992 231.298C73.827 231.891 72.6102 232.356 71.3981 232.842C70.1721 233.333 68.9494 233.831 67.7287 234.334C66.6523 234.778 65.6573 235.324 64.6137 235.832C63.6265 236.312 62.7265 236.946 61.7924 237.518C60.7821 238.137 59.7567 238.732 58.7461 239.351C56.7653 240.564 54.8373 241.78 52.758 242.824C51.6741 243.367 50.5842 243.9 49.4992 244.442C48.6076 244.887 47.6282 245.279 46.9771 246.068C46.0144 247.233 46.0983 249.108 47.0122 250.294C47.6158 251.077 49.0978 251.004 49.9986 251.03C50.6128 251.047 51.2373 251.014 51.8406 250.89C52.3393 250.788 52.7626 250.523 53.2489 250.399C53.7998 250.259 54.4157 250.289 54.9814 250.213C55.5351 250.139 56.0841 250.039 56.6314 249.928C57.817 249.686 58.9923 249.394 60.1761 249.143C61.3294 248.898 62.4856 248.66 63.6166 248.324C64.0859 248.184 64.5815 247.917 65.0647 247.927C65.5896 247.938 66.0487 247.974 66.5775 247.88C67.117 247.784 67.6466 247.633 68.1903 247.56C68.6958 247.493 69.2062 247.574 69.706 247.489C70.2703 247.393 70.7938 247.145 71.34 246.984C71.8742 246.826 72.3662 246.875 72.9156 246.875C71.5618 247.922 70.1459 248.886 68.7666 249.899C67.3731 250.921 66.0728 252.051 64.7331 253.14C63.6485 254.02 62.2929 254.867 61.6248 256.133C61.0878 257.153 60.9879 258.417 61.204 259.539C61.4753 260.947 62.5171 261.125 63.7834 261.213C65.4199 261.327 66.6817 260.633 68.1102 259.929C70.9079 258.551 73.6113 256.959 76.2552 255.308C77.5633 254.492 79.0089 253.876 80.3985 253.211C81.1335 252.86 81.8695 252.511 82.606 252.163C83.2078 251.877 83.9959 251.31 84.6601 251.375C82.8316 255.164 80.9174 258.912 79.3061 262.802C78.6306 264.432 78.0929 266.119 77.9604 267.889C77.8669 269.13 77.932 271.588 79.4825 271.999C80.1746 272.183 80.798 271.724 81.2631 271.266C81.9269 270.613 82.538 269.899 83.172 269.217C84.4129 267.882 85.7079 266.615 87.0617 265.395C88.4329 264.159 89.8037 262.951 91.035 261.572C92.2085 260.258 93.675 259.262 94.7926 257.895C95.9402 256.491 96.9696 254.996 98.1254 253.599C98.8859 252.679 99.4969 251.239 100.802 251.035C100.996 252.12 101.932 253.085 102.587 253.972C104.031 255.931 105.776 257.535 107.58 259.154C109.212 260.619 110.966 261.847 113.024 262.64C114.379 263.163 117.213 264.373 118.277 262.729C118.782 261.948 118.515 260.422 118.326 259.567C118.064 258.379 117.487 257.266 116.967 256.173C115.909 253.951 114.737 251.817 113.546 249.665C112.949 248.584 112.363 247.495 111.718 246.442C111.159 245.528 110.381 244.646 110.105 243.591C109.991 243.157 109.922 242.568 110.062 242.13C110.211 241.664 110.405 241.75 110.822 241.69C111.738 241.56 111.462 239.869 111.342 239.21C111.235 238.623 111.015 238.057 110.805 237.5C110.626 237.029 110.229 236.386 110.251 235.876C110.272 235.393 110.74 234.901 110.93 234.467C111.151 233.963 111.295 233.436 111.452 232.909C112.167 230.495 113.104 228.162 113.699 225.711C114.291 223.272 114.92 220.885 115.788 218.526C116.689 216.079 117.671 213.657 118.491 211.181C119.286 208.779 120.069 206.383 120.942 204.006C122.695 199.241 124.562 194.51 126.628 189.871C128.667 185.293 130.983 180.837 132.745 176.141C133.592 173.882 134.429 171.638 135.228 169.362C136.055 167.002 136.941 164.69 137.899 162.381C138.877 160.024 139.683 157.591 140.519 155.181C141.341 152.809 142.045 150.357 143.06 148.061C143.321 148.345 143.561 148.549 143.748 148.885C143.935 149.219 144.094 149.532 144.353 149.821C144.817 150.34 145.408 150.704 145.972 151.102C146.324 151.352 146.617 151.65 147.02 151.705C147.031 151.706 147.041 151.707 147.052 151.709C146.979 151.713 146.906 151.717 146.825 151.733C147.339 152.09 147.852 152.445 148.367 152.803C148.324 152.703 148.279 152.607 148.231 152.514C148.398 152.804 148.572 153.078 148.933 153.14C148.903 153.145 148.874 153.149 148.846 153.15C149.089 153.331 149.955 154.192 149.879 153.263C149.912 153.414 149.856 153.527 149.919 153.678C149.986 153.837 150.141 153.983 150.257 154.11C150.502 154.376 150.787 154.602 151.078 154.811C151.764 155.304 152.503 155.717 153.168 156.238C153.361 156.389 154.014 157.147 154.239 157.147C154.659 157.513 155.079 157.879 155.499 158.245C155.339 157.682 155.177 157.12 155.016 156.558C155.133 156.965 155.25 157.373 155.367 157.781C155.502 158.256 155.707 158.428 156.064 158.746C156.689 159.305 157.309 159.871 157.958 160.403C159.142 161.374 160.5 162.126 161.768 162.98C162.458 163.444 163.134 163.921 163.79 164.43C164.329 164.848 164.987 164.996 165.522 165.401C166.196 165.912 166.793 166.578 167.378 167.186C167.902 167.731 168.521 168.28 168.883 168.951C169.292 169.713 169.299 170.705 169.427 171.548C169.556 172.398 169.684 173.248 169.808 174.099C170.063 175.846 170.305 177.594 170.514 179.346C170.721 181.069 170.974 182.791 171.123 184.519C171.275 186.269 171.237 188.02 171.434 189.768C171.828 193.273 172.274 196.846 173.025 200.295C173.781 203.77 174.266 207.294 174.923 210.791C175.261 212.59 175.618 214.384 175.971 216.18C176.144 217.063 176.33 217.944 176.505 218.826C176.65 219.556 176.574 220.289 176.703 221.025C176.771 221.419 176.867 221.813 176.867 222.215C176.867 222.607 176.622 222.949 176.608 223.298C176.589 223.791 177.04 224.569 177.314 224.962C177.727 225.555 178.298 226.091 178.778 226.635C179.261 227.183 179.455 227.38 179.283 228.12C178.547 231.295 180.433 233.955 182.446 236.2C184.663 238.671 186.88 241.052 189.423 243.192C190.755 244.312 192.009 245.522 193.284 246.706C194.506 247.842 195.824 248.728 197.252 249.593C198.7 250.471 200.234 251.111 201.734 251.882C203.213 252.643 204.651 253.364 206.224 253.918C207.72 254.445 209.235 254.893 210.67 255.563C211.803 256.091 213.242 256.068 214.386 255.58C215.157 255.25 215.818 254.651 216.506 254.182C217.149 253.742 217.805 253.322 218.479 252.933C219.594 252.291 220.683 251.543 221.159 250.29C221.723 248.805 221.235 247.021 220.913 245.53C220.584 244.006 219.904 242.585 219.089 241.264C218.24 239.888 217.183 238.698 216.208 237.415C215.2 236.089 214.302 234.693 213.247 233.399C212.203 232.118 211.108 230.896 209.933 229.736C208.76 228.579 207.735 227.288 206.652 226.048C206.392 225.749 205.993 225.428 205.945 225.005C205.902 224.636 206.155 224.37 206.277 224.045C206.513 223.415 206.443 222.723 206.455 222.065C206.461 221.744 206.456 221.415 206.616 221.124C206.765 220.853 207.041 220.746 207.146 220.454C207.24 220.195 207.206 219.867 207.258 219.596C207.324 219.252 207.485 219.002 207.595 218.676C207.868 217.86 207.529 216.909 207.375 216.1C207.23 215.336 207.093 214.57 206.952 213.806C206.647 212.153 206.42 210.496 205.9 208.892C204.844 205.635 203.813 202.396 203.742 198.938C203.707 197.206 203.224 195.547 202.824 193.873C202.399 192.097 201.968 190.323 201.53 188.55C200.691 185.155 199.685 181.81 198.825 178.421C197.968 175.045 197.188 171.646 196.169 168.314C195.139 164.947 193.707 161.785 192.175 158.621C191.439 157.099 190.633 155.786 189.549 154.486C188.425 153.139 187.272 151.816 186.118 150.494C183.789 147.828 181.457 145.164 179.094 142.528C177.918 141.216 176.726 139.965 175.353 138.854C174.13 137.864 172.455 137.031 172.069 135.413C171.96 134.956 171.887 134.491 171.767 134.037C171.698 133.776 171.483 133.379 171.516 133.094C171.583 132.527 172.632 132.311 173.056 132.119C174.524 131.454 176.008 130.797 177.448 130.073C178.243 129.674 178.949 129.187 179.69 128.7C180.313 128.29 181.023 128.166 181.725 127.948C183.285 127.464 184.725 126.775 186.165 126.013C187.651 125.226 189.149 124.44 190.589 123.573C192.052 122.693 193.186 121.61 194.426 120.461C194.98 119.948 195.375 120.206 195.768 120.772C196.245 121.459 196.749 122.13 197.244 122.806C197.473 123.121 197.672 123.492 197.998 123.681C198.011 123.689 198.021 123.693 198.033 123.699C197.977 123.68 197.917 123.66 197.849 123.633C197.968 124.483 198.609 125.065 199.173 125.651C199.121 125.505 199.07 125.359 199.02 125.213C199.161 125.618 199.356 125.892 199.617 126.238C200.135 126.926 200.719 127.53 201.332 128.134C201.649 128.446 201.97 128.754 202.29 129.063C202.418 129.187 202.547 129.31 202.674 129.435C202.881 129.634 202.997 129.699 203.214 129.796C203.652 129.994 203.754 130.34 204.132 130.613C204.701 131.024 205.409 131.295 205.997 131.7C206.478 132.031 206.896 132.703 207.451 132.826C207.653 132.87 207.802 132.838 207.964 132.997C208.177 133.206 207.956 133.201 208.291 133.277C208.461 133.315 208.635 133.218 208.806 133.272C208.986 133.329 209.145 133.486 209.297 133.596C209.644 133.849 209.991 134.103 210.338 134.357C210.961 134.815 211.582 135.276 212.198 135.745C213.423 136.681 214.548 137.739 215.776 138.668C216.411 139.148 217.095 139.499 217.773 139.907C218.339 140.247 218.816 140.706 219.345 141.095C219.978 141.558 220.717 141.785 221.373 142.204C222.018 142.616 222.638 143.041 223.307 143.412C224.771 144.222 226.258 144.978 227.809 145.605C229.377 146.239 230.982 146.751 232.684 146.831C234.412 146.913 236.047 146.461 237.64 145.83C239.216 145.207 240.768 144.494 242.262 143.693C243.715 142.915 245.068 141.978 246.493 141.153C247.925 140.324 249.28 139.459 250.644 138.52C251.939 137.629 253.171 136.633 254.569 135.904C255.98 135.169 257.232 134.212 258.56 133.345C259.926 132.453 261.282 131.554 262.638 130.645C265.463 128.751 268.292 126.825 270.977 124.732C272.265 123.727 273.536 122.694 274.665 121.51C275.87 120.247 277.307 119.17 278.631 118.034C279.901 116.801 281.17 115.569 282.44 114.336C282.442 114.334 282.444 114.332 282.446 114.33C281.175 115.564 279.903 116.799 278.631 118.034C279.235 117.92 279.628 117.528 280.113 117.152C280.624 116.756 281.131 116.353 281.632 115.945C282.363 115.35 283.208 114.738 283.123 113.684C283.443 113.386 283.77 113.095 284.11 112.822C284.666 112.379 285.329 112.108 285.92 111.715C287.134 110.909 288.175 109.882 289.314 108.981C289.816 108.585 290.266 108.285 290.345 107.605C290.429 106.867 290.33 106.068 290.325 105.324C290.321 104.75 290.156 103.948 290.376 103.404C290.596 102.859 291.33 102.625 291.804 102.365C293.145 101.63 294.465 100.859 295.806 100.125C297.126 99.4035 298.274 98.9225 299.784 98.7936C300.441 98.7373 301.072 98.6381 301.722 98.5371C302.394 98.4323 303.02 98.6306 303.678 98.7511C305.17 99.0249 306.681 99.1882 308.173 99.4655C309.675 99.7447 311.161 100.116 312.645 100.482C314.13 100.848 315.612 101.238 317.12 101.502C317.892 101.637 318.69 101.726 319.437 101.967C320.003 102.149 320.547 102.405 321.128 102.534C322.536 102.844 323.967 102.881 325.344 103.351C326.718 103.821 328.119 104.057 329.551 104.273C330.302 104.386 331.049 104.506 331.791 104.667C332.239 104.764 332.637 104.821 333.091 104.71C334.032 104.48 334.795 103.722 335.096 102.81C335.926 100.295 334.321 97.596 332.686 95.8121C330.932 93.899 328.718 92.5597 326.613 91.0797C327.452 90.9876 328.285 91.1113 329.123 91.1265C329.841 91.1396 330.544 91.1077 331.264 91.147C332.857 91.2342 334.444 90.773 336.04 90.739C338.199 90.6926 340.863 90.2526 341.427 87.7919C341.951 85.5018 339.522 83.4378 337.788 82.3985C336.675 81.7308 335.548 81.1198 334.457 80.4131C333.292 79.6583 331.852 79.2141 330.564 78.7061C329.255 78.189 327.935 77.6835 326.572 77.3233C325.263 76.9768 323.936 76.7912 322.681 76.2783C323.823 75.7799 325.059 75.6701 326.282 75.4416C327.501 75.2139 328.698 74.9124 329.892 74.5823Z" fill="#E5E5E5"/>
<path fill-rule="evenodd" clip-rule="evenodd" d="M337.228 164.255C337.1 164.795 336.787 165.06 336.252 165.189C335.37 165.401 334.404 165.434 333.504 165.543C331.86 165.743 330.161 165.827 328.549 166.216C327.04 166.58 325.531 167.125 324.168 167.873C324.614 165.743 325.119 163.673 324.932 161.479C324.794 159.867 324.756 157.44 323.128 156.508C322.751 156.292 322.154 156.374 321.735 156.351C321.19 156.322 320.645 156.297 320.1 156.267C319.021 156.207 317.949 156.094 316.874 155.989C314.754 155.781 312.65 155.524 310.544 155.215C310.196 155.164 309.57 155.202 309.337 154.9C309.165 154.678 309.247 154.327 309.26 154.077C309.304 153.214 309.27 152.354 309.162 151.497C308.928 149.621 308.41 147.775 307.831 145.98C307.538 145.073 307.224 144.172 306.929 143.265C306.786 142.827 306.455 142.229 306.928 141.915C307.224 141.719 307.741 141.721 308.084 141.635C308.493 141.534 308.892 141.4 309.292 141.269C310.236 140.958 311.18 140.643 312.123 140.329C315.709 139.134 319.326 138.019 322.901 136.801C323.402 136.631 323.899 136.452 324.399 136.282C324.616 136.209 324.992 136.019 325.225 136.121C325.498 136.241 325.445 136.542 325.641 136.72C325.812 136.876 326.2 136.888 326.42 137.015C326.979 137.337 327.33 137.9 327.768 138.354C328.333 138.939 328.964 139.452 329.522 140.047C331.772 142.449 333.436 145.341 334.846 148.298C335.225 149.095 335.472 149.919 335.709 150.767C335.934 151.569 336.22 152.352 336.348 153.178C336.645 155.106 336.655 157.09 336.894 159.031C337.093 160.657 337.612 162.626 337.228 164.255ZM322.935 159.9C322.93 161.185 322.863 162.477 322.581 163.734C322.292 165.03 321.768 166.271 321.301 167.51C320.86 168.68 320.504 169.885 319.993 171.026C319.489 172.152 318.842 173.178 318.438 174.347C317.608 176.743 316.187 178.846 315.181 181.16C314.154 183.525 313.009 185.783 311.732 188.026C311.125 189.092 310.562 190.272 309.794 191.233C309.412 191.709 308.977 192.185 308.536 192.607C308.152 192.975 307.967 192.694 307.502 192.778C306.825 192.899 306.475 193.778 306.037 194.231C305.206 195.087 304.357 195.934 303.447 196.706C302.515 197.496 301.485 198.157 300.529 198.918C299.616 199.644 298.704 200.301 297.661 200.831C295.601 201.877 293.232 203.161 290.855 203.051C289.761 203 289.176 202.288 288.718 201.338C288.232 200.332 288.396 199.126 288.477 198.046C288.575 196.752 288.888 195.61 289.578 194.512C290.259 193.429 289.588 192.757 288.91 191.854C287.396 189.84 285.38 188.271 283.541 186.57C282.591 185.691 281.65 184.802 280.709 183.913C280.189 183.422 279.67 182.93 279.151 182.439C278.771 182.078 278.404 181.835 278.267 181.328C279.302 180.77 280.38 180.295 281.334 179.598C283.281 178.174 285.067 176.436 286.902 174.87C287.784 174.117 288.481 173.184 289.189 172.274C289.872 171.396 290.655 170.566 291.245 169.619C292.514 167.581 293.961 165.562 294.966 163.377C295.468 162.288 295.727 161.176 295.989 160.013C296.147 159.313 296.329 158.618 296.506 157.922C296.621 157.473 296.654 156.701 296.941 156.33C297.47 155.647 299.132 156.75 299.741 156.943C300.887 157.308 302.081 157.481 303.266 157.665C305.78 158.053 308.312 158.386 310.809 158.868C312.118 159.12 313.43 159.4 314.758 159.532C316.045 159.66 317.339 159.594 318.629 159.584C318.906 159.582 319.243 159.631 319.428 159.377C319.534 159.232 319.463 159.052 319.633 158.916C319.854 158.739 320.144 158.834 320.398 158.862C320.915 158.917 321.433 158.948 321.948 159.012C322.171 159.04 322.614 159.002 322.804 159.119C323.005 159.243 322.936 159.616 322.935 159.9ZM286.752 194.379C286.15 195.592 285.803 197.288 285.784 198.632C285.775 199.353 285.87 200.073 286.018 200.777C286.146 201.392 286.498 202.099 286.387 202.719C284.861 202.013 283.362 201.254 281.806 200.617C280.461 200.067 279.451 199.109 278.345 198.199C277.156 197.223 276.081 196.134 274.939 195.105C273.714 194.001 272.436 192.957 271.19 191.877C268.971 189.955 267.108 187.794 265.287 185.497C263.686 183.478 261.391 180.903 261.498 178.171C261.549 176.903 261.642 175.461 262.263 174.327C262.78 173.384 263.714 172.327 264.588 171.697C265.428 171.091 266.252 172.614 266.724 173.149C267.741 174.301 268.778 175.434 269.81 176.572C271.772 178.738 273.634 181.011 275.756 183.024C277.895 185.053 280.082 187.037 282.386 188.875C283.539 189.796 284.809 190.654 285.856 191.697C286.24 192.08 286.986 192.501 287.243 192.979C287.518 193.494 286.967 193.946 286.752 194.379ZM339.251 164.477C338.927 164.435 338.943 164.479 338.915 164.162C338.873 163.67 339.039 163.09 339.089 162.598C339.327 160.255 339.213 157.8 339.009 155.457C338.608 150.854 337.659 146.329 335.253 142.337C334.142 140.494 332.886 138.755 331.311 137.278C330.586 136.598 329.877 135.865 329.074 135.274C328.671 134.977 328.085 134.827 327.718 134.523C327.52 134.359 327.432 134.024 327.265 133.814C326.597 132.977 325.843 132.761 324.778 132.852C323.673 132.945 322.515 133.292 321.449 133.588C319.18 134.217 317.005 135.286 314.808 136.131C312.601 136.978 310.418 137.882 308.242 138.804C307.296 139.205 306.154 139.519 305.314 140.124C304.806 140.49 304.657 140.943 304.712 141.551C304.904 143.699 305.701 145.832 306.308 147.886C306.959 150.092 307.489 152.34 307.656 154.639C305.407 154.475 303.172 154.303 300.934 154.021C299.815 153.879 298.689 153.763 297.572 153.61C296.994 153.53 296.724 153.315 296.26 153.014C295.852 152.751 295.642 152.974 295.468 153.374C294.562 155.454 294.206 157.723 293.226 159.788C292.786 160.716 292.236 161.581 291.779 162.499C291.281 163.498 290.681 164.48 290.056 165.403C289.767 165.832 289.395 166.179 289.074 166.581C288.776 166.953 288.563 167.382 288.289 167.771C287.718 168.585 287.026 169.303 286.325 170.005C285.622 170.709 284.94 171.424 284.269 172.158C283.608 172.88 282.819 173.466 282.121 174.147C281.464 174.788 280.892 175.487 280.218 176.115C279.569 176.721 279.265 177.561 278.566 178.106C278.19 178.399 277.772 178.635 277.397 178.931C277.087 179.176 276.764 179.603 276.324 179.521C275.837 179.43 275.444 178.774 275.139 178.435C274.746 178 274.35 177.567 273.951 177.135C272.386 175.441 270.781 173.78 269.202 172.096C268.431 171.273 267.582 170.526 266.83 169.685C266.282 169.071 265.385 168.635 264.618 169.054C263.843 169.478 262.914 169.851 262.287 170.487C261.608 171.175 261.066 172.07 260.513 172.861C259.937 173.684 259.708 174.656 259.557 175.634C259.397 176.676 259.23 177.709 259.309 178.767C259.46 180.77 259.832 183.006 260.99 184.693C261.542 185.496 262.298 186.1 262.975 186.792C263.707 187.542 264.23 188.444 264.834 189.295C266.046 191.002 267.534 192.531 269.052 193.967C269.776 194.652 270.596 195.229 271.323 195.917C272.1 196.651 272.887 197.313 273.763 197.923C274.66 198.547 275.401 199.36 276.211 200.086C277.045 200.833 277.899 201.53 278.818 202.17C280.58 203.399 282.371 204.2 284.42 204.817C286.676 205.498 288.861 206.389 291.105 207.101C292.18 207.441 293.244 206.97 294.268 206.625C295.312 206.273 296.337 205.856 297.299 205.314C299.249 204.215 301.122 202.939 303.04 201.781C305.036 200.577 306.702 199.196 308.227 197.434C309.679 195.753 311.217 194.085 312.54 192.301C315.226 188.677 316.85 184.39 318.843 180.377C319.903 178.243 320.976 176.144 321.858 173.927C322.291 172.836 322.679 171.726 323.122 170.64C323.309 170.179 323.464 170 323.966 169.922C324.546 169.831 325.139 169.791 325.722 169.722C328.027 169.447 330.277 169.039 332.562 168.644C334.682 168.279 336.816 167.901 338.711 166.823C339.11 166.597 339.588 166.33 339.805 165.907C339.904 165.713 340.147 164.733 340.01 164.576C339.929 164.484 339.389 164.495 339.251 164.477Z" fill="#E5E5E5"/>
<path fill-rule="evenodd" clip-rule="evenodd" d="M244.85 18.8851C245.586 18.4975 246.337 18.14 247.086 17.7766C248.671 17.0058 250.232 16.1828 251.835 15.4495C252.561 15.1177 253.319 14.9061 254.064 14.6275C254.856 14.3319 255.612 13.9414 256.372 13.5741C257.969 12.8013 259.602 12.1354 261.261 11.5077C261.768 11.3154 262.277 11.1264 262.787 10.938C263.178 10.7936 263.654 10.5162 264.06 10.4687C264.705 10.393 265.19 11.0508 265.629 11.4464C268.001 13.5813 269.676 16.7464 270.695 19.7393C271.251 21.3726 271.503 23.0589 271.8 24.7525C272.104 26.488 272.427 28.1868 272.439 29.9517C272.451 31.7459 272.635 33.5147 272.556 35.3132C272.526 35.984 272.647 37.1901 272.278 37.7749C271.903 38.3672 270.965 38.5326 270.362 38.7515C267.062 39.9481 263.764 41.2364 260.416 42.2895C256.932 43.3844 253.456 44.4977 249.981 45.6244C250.123 44.6362 250.288 43.6486 250.399 42.6568C250.504 41.7227 250.426 40.756 250.417 39.8174C250.4 37.7547 250.332 35.7035 249.918 33.6764C249.166 29.9953 247.95 26.371 245.911 23.1935C245.433 22.4491 244.864 21.7702 244.296 21.0942C244.093 20.8524 243.413 20.2801 243.437 19.9078C243.469 19.4199 244.498 19.0705 244.85 18.8851ZM284.454 18.4852C285.215 18.52 285.708 18.6951 285.761 19.5105C285.829 20.5499 285.814 21.6027 285.852 22.6444C285.923 24.6367 285.995 26.6298 285.942 28.6238C285.85 32.1168 285.479 35.6046 284.409 38.9428C283.892 40.5563 283.273 42.1425 282.605 43.6989C281.957 45.2093 281.04 46.5674 280.229 47.9899C279.829 48.6895 279.381 49.258 278.83 49.8457C278.569 50.1245 278.45 50.2729 278.081 50.3207C277.707 50.3685 277.236 50.2718 276.861 50.2449C275.094 50.1177 273.327 49.9424 271.557 49.857C269.803 49.7727 268.041 49.8467 266.288 49.7653C265.465 49.7267 264.689 49.4592 263.88 49.3289C263.065 49.1975 262.241 49.1397 261.421 49.0473C260.998 48.9995 261.008 49.0993 260.944 48.715C260.91 48.5103 260.969 48.2457 260.98 48.036C261.001 47.6322 261.022 47.228 261.046 46.8245C261.068 46.4639 260.995 45.8306 261.141 45.4891C261.271 45.1856 261.551 45.1328 261.841 45.0531C263.473 44.6054 265.05 44.051 266.62 43.418C268.221 42.7726 269.842 42.163 271.426 41.473C272.108 41.1758 272.878 40.9034 273.395 40.3427C273.819 39.8825 274.063 39.2913 274.25 38.703C275.282 35.4668 274.958 31.7371 274.656 28.4035C274.345 24.9767 273.855 21.4599 272.6 18.2384C276.549 18.2384 280.508 18.304 284.454 18.4852ZM240.378 21.4479C241.474 21.8588 242.166 22.8168 242.805 23.7401C243.6 24.8913 244.35 26.0552 244.973 27.3113C246.282 29.9507 247.146 32.8589 247.639 35.7594C248.11 38.528 248.344 41.6157 247.802 44.3932C247.656 45.136 247.278 45.7318 247.066 46.4356C246.923 46.9085 247.023 47.596 247.151 48.0661C247.335 48.7402 247.971 48.5103 248.5 48.4012C249.273 48.2418 250.047 48.0841 250.819 47.9212C253.73 47.307 256.612 46.2383 259.576 46.0222C259.324 46.8104 259.183 47.5255 258.673 48.201C258.197 48.833 257.562 49.3806 257.288 50.1418C257.059 50.7762 257.015 51.6642 257.248 52.3082C257.492 52.9841 258.089 52.9936 258.716 53.0698C260.478 53.2834 262.212 53.5735 263.988 53.6705C264.37 53.6911 264.751 53.7339 265.128 53.6617C265.431 53.6032 265.644 53.5126 265.951 53.5692C266.357 53.644 266.715 53.8399 267.142 53.8834C267.543 53.9245 267.948 53.9118 268.35 53.8965C269.838 53.8409 271.292 53.9961 272.782 53.8508C273.215 53.8087 274.03 53.5625 274.436 53.8105C274.865 54.0726 274.529 54.6014 274.742 54.9652C275.023 55.4434 275.989 55.1983 276.456 55.1724C277.122 55.1359 277.714 55.018 278.311 54.7105C279.519 54.0889 280.61 53.2614 281.499 52.2292C282.428 51.1492 283.102 49.8882 283.767 48.6353C284.461 47.3297 285.156 46.0541 285.68 44.667C286.216 43.2498 286.741 41.7879 287.045 40.3012C287.348 38.8167 287.54 37.3088 287.826 35.82C288.125 34.267 288.177 32.6842 288.256 31.1087C288.338 29.4751 288.374 27.87 288.272 26.2361C288.171 24.6312 287.994 23.057 287.806 21.4622C287.758 21.0545 287.783 20.6324 287.718 20.2286C287.674 19.9574 287.533 19.6999 287.517 19.4245C287.486 18.877 287.988 18.5249 287.975 17.9523C287.945 16.6222 286.53 16.1271 285.479 15.809C284.112 15.3954 282.588 15.1461 281.159 15.2487C278.085 15.4697 274.942 15.4984 272.026 16.6209C270.515 14.031 269.107 11.2216 266.634 9.40515C266.355 9.19981 266.053 9.06 265.872 8.75721C265.718 8.49743 265.65 8.23701 265.443 8.00301C264.936 7.4274 264.31 7.35603 263.6 7.50661C262.054 7.83383 260.578 8.19237 259.112 8.77772C258.461 9.03751 257.771 9.15971 257.118 9.41362C256.49 9.65743 255.889 9.96347 255.285 10.261C253.964 10.9129 252.597 11.4663 251.277 12.1234C248.625 13.4434 246.004 14.8269 243.563 16.5127C242.384 17.3272 241.032 18.1694 240.033 19.2032C239.593 19.6585 239.393 20.2328 239.467 20.8612C239.543 21.5147 239.878 21.2601 240.378 21.4479Z" fill="#E5E5E5"/>
<path fill-rule="evenodd" clip-rule="evenodd" d="M66.6393 26.5076C66.7686 24.8216 66.7162 23.1311 66.8384 21.446C66.955 19.8453 67.2784 18.2148 67.5929 16.6412C67.9128 15.0407 68.494 13.62 69.1476 12.1342C69.5082 11.3147 69.8567 10.4897 70.2063 9.66532C70.4196 9.1597 70.5758 8.63581 71.1673 8.50093C71.9342 8.32619 72.8601 8.46791 73.649 8.43982C74.446 8.41141 75.2426 8.36342 76.0371 8.29286C77.7643 8.13934 79.4805 7.88689 81.2045 7.7079C82.8559 7.53674 84.4888 7.43646 86.1193 7.09613C86.9584 6.92107 87.7905 6.7163 88.6226 6.5118C89.2463 6.35896 90.1103 5.96801 90.7376 6.1166C89.9619 7.88327 89.7203 9.76917 89.7012 11.6812C89.6941 12.4347 89.6048 12.743 88.8202 12.6966C87.8412 12.6388 86.8582 12.5402 85.8845 12.4282C84.0468 12.2162 82.2236 11.8798 80.4018 11.5643C79.5382 11.4147 78.709 11.2017 77.8617 11.0142C77.2603 10.8816 77.0073 11.1201 76.8062 11.6694C76.6613 12.0669 76.6145 12.2459 76.2415 12.4703C75.9369 12.6535 75.6369 12.8273 75.3563 13.0484C74.8569 13.442 74.4269 13.9149 74.0592 14.4333C73.2431 15.582 72.7199 16.9319 72.2406 18.2481C71.0363 21.5607 70.4299 25.1636 70.3179 28.6816C70.2612 30.4705 69.9662 32.2241 69.9467 34.0188C69.9375 34.8099 70.1394 35.8281 69.4788 36.403C68.8327 36.9658 68.0027 37.3696 67.2819 37.8308C66.65 36.0208 66.487 34.1008 66.4679 32.196C66.4481 30.297 66.4941 28.4007 66.6393 26.5076ZM93.3776 16.9273C94.1668 17.1373 94.9599 17.3232 95.7558 17.5077C94.4024 20.7517 94.4498 24.3402 94.3475 27.7981C94.3021 29.3446 94.3436 30.8951 94.4955 32.4348C94.6521 34.0097 95.006 35.5132 95.324 37.0572C95.3935 37.3944 95.56 37.9474 95.3379 38.2566C95.0917 38.5991 94.2855 38.784 93.9359 38.942C92.5484 39.5676 91.1825 40.2463 89.7667 40.8077C88.3314 41.3769 86.8405 41.7184 85.4371 42.3797C84.0634 43.0269 82.6717 43.6202 81.2413 44.1317C79.8362 44.6347 78.3778 45.0034 77.0215 45.6361C75.735 46.2358 74.673 47.06 73.5799 47.9491C72.9154 45.8851 72.6565 43.7853 72.5364 41.622C72.4213 39.5516 72.2516 37.3962 72.4631 35.3305C72.5591 34.3879 72.5594 33.5113 72.5406 32.5673C72.5236 31.7227 72.7188 30.8944 72.7861 30.054C72.9342 28.2021 72.9282 26.3525 73.1789 24.5077C73.654 21.0188 74.5958 17.3258 76.4966 14.335C76.6177 14.1442 76.736 13.8365 76.9032 13.6958C77.1848 13.4589 77.0849 13.5034 77.4554 13.6941C77.8012 13.8715 78.1419 14.0603 78.4986 14.2154C79.2478 14.5414 80.0494 14.6848 80.8308 14.9069C81.6965 15.1528 82.4818 15.5297 83.3805 15.6692C84.2508 15.8041 85.1353 15.8204 86.0052 15.9573C86.4863 16.033 86.9276 16.1921 87.3959 16.3116C87.777 16.409 88.1504 16.3832 88.5514 16.4253C89.3264 16.5073 90.0809 16.7241 90.858 16.7944C91.7319 16.8734 92.5101 16.6967 93.3776 16.9273ZM64.7393 31.9893C65.0071 34.125 65.5781 36.217 66.4112 38.2017C66.6787 38.84 66.9805 39.7333 67.7456 39.9098C68.4512 40.0723 69.3063 39.5538 69.9711 39.3717C70.4925 42.4711 70.7207 45.6913 72.1035 48.5641C72.2782 48.9268 72.5084 49.6026 72.8676 49.8403C73.2346 50.0829 73.6805 49.846 74.0464 49.7068C75.583 49.1244 77.1703 48.7518 78.7604 48.3487C79.5358 48.1521 80.326 47.9775 81.083 47.7146C81.7114 47.4961 82.3054 47.2336 82.9639 47.1146C84.3401 46.8656 85.6188 46.4154 86.9344 45.951C89.6955 44.9755 92.4715 44.0924 95.0198 42.6277C96.2358 41.9288 97.5114 41.2441 98.6342 40.4C99.5552 39.7078 100.586 38.6703 100.134 37.4136C99.998 37.0335 99.6243 36.4044 99.1939 36.2886C98.7901 36.1791 98.4274 36.5447 98.0579 36.629C97.4993 36.7565 97.6247 36.3059 97.5726 35.866C97.5319 35.5192 97.489 35.1728 97.4469 34.8259C97.359 34.0982 97.2723 33.3699 97.2071 32.6395C96.9382 29.6141 97.0647 26.5906 97.0618 23.5602C97.0608 22.0431 97.4118 20.7131 97.766 19.2515C97.9534 18.4761 98.1288 17.6975 98.2938 16.9172C98.3852 16.4834 98.4918 16.0072 98.3661 15.5683C98.0845 14.5842 96.6828 14.3121 95.8529 14.0319C95.1395 13.7908 94.4151 13.5814 93.6766 13.4338C93.2717 13.3531 92.1903 13.4162 91.9285 13.0762C91.6692 12.7397 91.9561 11.6475 91.9823 11.2471C92.0309 10.5096 92.0819 9.77275 92.1789 9.03952C92.3355 7.85681 92.3185 6.76004 91.3749 5.89518C91.9632 5.42615 92.3812 4.43094 91.5254 3.99883C90.541 3.50139 89.224 3.42921 88.1844 3.69019C87.0473 3.97562 85.7994 3.97924 84.6348 4.10399C83.3957 4.2363 82.1602 4.39729 80.9236 4.55343C78.7965 4.82256 76.6298 4.88168 74.5285 5.31348C73.4761 5.52937 72.423 5.69366 71.3625 5.86121C70.2641 6.03432 69.6017 6.1816 68.9443 7.10856C67.6981 8.86673 66.5476 10.6684 65.8477 12.7208C65.1853 14.6652 64.876 16.7081 64.6918 18.7479C64.4938 20.9463 64.4492 23.1386 64.474 25.3445C64.4988 27.5629 64.4623 29.7826 64.7393 31.9893Z" fill="#E5E5E5"/>
<path fill-rule="evenodd" clip-rule="evenodd" d="M20.0536 118.874C20.1795 118.661 20.5618 118.608 20.7629 118.527C21.0805 118.4 21.3814 118.241 21.6771 118.07C23.1577 117.216 24.602 116.343 25.97 115.314C26.3054 115.062 27.1297 114.136 27.6153 114.282C27.8534 114.354 27.983 114.749 28.0861 114.942C28.2667 115.281 28.4541 115.615 28.6582 115.941C29.4636 117.227 30.4675 118.381 31.5886 119.403C33.6959 121.323 36.0971 122.563 38.9879 122.711C37.1212 125.248 35.337 127.899 33.2166 130.235C32.1469 131.415 30.9733 132.481 29.8625 133.619C29.6726 133.813 29.5706 133.93 29.3209 134.042C29.079 134.149 28.8487 134.184 28.6489 134.383C28.3015 134.729 28.2767 135.244 28.3549 135.701C26.3819 135.777 24.2458 134.893 22.4555 134.169C21.4046 133.744 20.3679 133.27 19.3811 132.711C18.7103 132.331 17.96 131.907 17.4685 131.297C19.2778 130.334 21.107 129.419 22.8408 128.323C24.0247 127.575 26.1166 126.701 25.9477 124.974C25.9211 124.705 25.8155 124.375 25.5775 124.22C25.2254 123.99 25.1452 124.261 24.825 124.331C24.305 124.443 23.6911 123.756 23.2944 123.461C22.2216 122.661 21.1737 121.778 20.5373 120.578C20.3469 120.219 19.8083 119.291 20.0536 118.874ZM9.03388 134.169C9.32728 133.212 7.95656 132.476 7.35148 132.016C6.4439 131.325 5.81268 130.561 5.20204 129.596C2.8204 125.831 1.97658 121.246 2.17183 116.845C2.22581 115.623 2.36449 114.404 2.39261 113.182C2.40731 112.547 2.36612 111.956 2.50511 111.329C2.6366 110.737 2.79359 110.151 2.93878 109.562C3.22921 108.387 3.37802 107.184 3.72473 106.022C4.04654 104.947 4.48513 103.909 4.99893 102.911C5.34139 102.245 5.66025 101.312 6.55508 101.439C7.673 101.599 8.76602 102.175 9.85482 102.475C11.0604 102.808 12.2796 103.086 13.497 103.372C14.6744 103.648 15.8253 104.041 17.0106 104.28C17.6304 104.405 18.2429 104.456 18.8742 104.445C19.1492 104.44 19.6438 104.414 19.6706 104.79C19.7003 105.202 19.0681 105.65 18.8084 105.902C18.4418 106.258 18.1726 106.594 17.9721 107.067C17.4946 108.194 17.0619 109.369 16.885 110.584C16.7129 111.766 16.7424 113.009 16.7293 114.202C16.7028 116.608 17.0439 118.912 17.9074 121.166C18.6894 123.205 19.9146 124.612 21.5917 125.973C19.8393 126.846 18.0869 127.719 16.3342 128.59C14.7552 129.375 13.1588 130.052 11.809 131.212C11.2533 131.689 10.5959 132.24 10.1992 132.863C9.70339 133.641 10.401 134.169 11.1405 133.858C11.9545 133.516 12.7542 133.125 13.5509 132.745C14.0693 132.498 14.9347 131.835 15.5394 131.852C16.0533 131.866 16.2485 132.523 16.4771 132.888C16.8434 133.47 17.3 133.989 17.8034 134.457C18.8611 135.441 20.1013 136.264 21.4056 136.883C22.8447 137.567 24.3986 138.035 25.9689 138.302C26.8258 138.448 27.6964 138.525 28.565 138.493C29.2168 138.468 30.1399 138.466 30.7282 138.148C31.2344 137.874 30.9687 137.316 31.4703 137.029C31.9981 136.728 32.5567 136.503 33.0668 136.164C34.2715 135.365 34.9866 134.334 35.6937 133.101C37.3171 130.27 39.2915 127.682 40.5061 124.63C40.7902 123.915 40.9528 123.072 41.4175 122.449C41.7267 122.034 42.4175 121.787 42.4926 121.243C42.5655 120.711 42.3516 119.534 41.8231 119.289C41.2117 119.005 40.3237 119 39.6602 118.846C36.7783 118.173 34.0894 117.148 31.7923 115.241C31.2174 114.765 30.6769 114.248 30.1664 113.704C29.7878 113.301 29.391 112.876 29.4686 112.28C29.5373 111.751 29.9617 110.979 29.0956 110.83C28.5147 110.731 27.7159 111.037 27.2423 111.336C25.8233 112.232 24.5049 113.309 23.1501 114.299C21.9145 115.201 20.6488 116.06 19.3932 116.934C19.5397 114.857 19.472 112.607 19.9662 110.579C20.2079 109.589 20.6295 108.656 21.1711 107.795C21.7278 106.911 22.1716 105.985 22.6583 105.064C22.9291 105.221 23.3719 105.572 23.6195 105.154C23.7735 104.894 23.6656 104.209 23.6074 103.91C23.1763 101.693 19.8099 101.471 18.0742 101.093C15.5777 100.549 13.0845 99.8916 10.5577 99.5055C9.39072 99.3269 8.23359 99.2915 7.0591 99.22C6.45665 99.1831 5.75444 99.0492 5.38977 99.6588C5.29201 99.8225 5.27791 100.056 5.17129 100.186C5.07352 100.306 4.78866 100.422 4.65455 100.53C4.26569 100.843 3.92978 101.211 3.63575 101.613C3.03364 102.436 2.62087 103.383 2.2222 104.316C1.26063 106.565 0.71446 108.953 0.414542 111.374C0.107115 113.855 -0.107117 116.421 0.0563907 118.921C0.3573 123.523 1.60766 128.203 4.50606 131.881C5.17065 132.724 5.89475 133.414 6.85238 133.917C7.31584 134.16 8.77225 135.02 9.03388 134.169Z" fill="#E5E5E5"/>
<path fill-rule="evenodd" clip-rule="evenodd" d="M42.0544 188.31C41.1561 189.466 40.2592 190.609 39.4566 191.835C38.6493 193.068 37.8792 194.326 37.089 195.571C36.327 196.772 35.4758 197.938 34.863 199.226C34.5095 199.969 34.4752 200.947 33.5043 200.912C32.2213 200.866 31.0059 200.5 29.8753 199.9C27.6097 198.697 25.7238 197.008 24.3091 194.865C22.841 192.643 21.7012 190.127 20.8759 187.598C20.4194 186.2 20.0534 184.774 19.7228 183.341C19.5548 182.615 19.375 181.903 19.3737 181.152C19.3727 180.822 19.3932 180.492 19.4104 180.163C19.4263 179.852 19.5999 179.308 19.2413 179.286C19.3484 178.39 19.4509 177.495 19.5609 176.6C19.6404 175.952 19.6352 175.227 20.2023 174.799C20.7448 174.389 21.5961 174.375 22.2352 174.231C23.0084 174.056 23.775 173.851 24.5333 173.618C26.0887 173.142 27.5771 172.51 29.0783 171.888C29.8275 171.577 30.5773 171.261 31.2847 170.861C31.8692 170.529 32.2882 170.049 32.6842 170.804C35.382 175.945 37.3529 181.707 41.7693 185.696C42.1267 186.019 42.7111 186.406 42.7636 186.935C42.8142 187.449 42.3396 187.943 42.0544 188.31ZM45.6058 184.676C44.9831 184.249 44.2106 184.178 43.579 183.784C42.855 183.332 42.3757 182.313 41.8812 181.634C40.7009 180.014 39.5182 178.384 38.4527 176.686C37.485 175.143 36.6093 173.545 35.6799 171.979C35.2038 171.178 34.7122 170.396 34.1511 169.651C33.9123 169.334 33.3066 168.214 32.7962 168.256C32.5326 168.277 32.5433 168.533 32.3545 168.616C32.2571 168.658 32.1795 168.612 32.0845 168.625C31.7427 168.67 31.3715 168.497 31.0194 168.531C30.1494 168.616 29.2076 168.982 28.3702 169.234C26.6225 169.761 24.9557 170.503 23.2371 171.112C21.5335 171.717 19.631 172.12 18.074 173.06C17.4592 173.431 16.7649 174.025 17.3687 174.752C17.5977 175.028 17.9118 175.02 18.1499 175.234C18.3511 175.414 18.2615 175.514 18.2151 175.814C18.1885 175.986 18.1613 176.157 18.1347 176.329C17.856 178.133 17.6279 179.941 17.8793 181.763C18.1337 183.604 18.5194 185.438 19.0353 187.223C20.664 192.859 23.5775 199.548 29.3025 202.046C30.6407 202.629 31.9719 202.767 33.3838 203.03C33.8277 203.113 34.2038 203.314 34.5984 203.519C34.7872 203.616 35.0207 203.774 35.2477 203.746C35.766 203.682 36.1921 202.877 36.434 202.496C37.3479 201.058 38.3851 199.708 39.334 198.294C39.825 197.561 40.2901 196.811 40.6921 196.026C40.9252 195.572 41.092 194.819 41.7324 194.836C41.9049 195.066 42.0778 195.297 42.2503 195.528C42.3197 195.62 42.4239 195.723 42.4745 195.826C42.6017 196.087 42.5918 195.894 42.539 196.201C42.471 196.595 42.1065 197.04 41.8762 197.35C40.5291 199.171 39.1229 200.948 37.7106 202.718C36.3231 204.458 34.9059 206.185 33.28 207.71C32.951 208.018 32.5907 208.394 32.1097 208.415C31.6655 208.434 31.1788 208.201 30.7378 208.124C29.7793 207.957 28.7949 207.919 27.8605 207.629C27.3745 207.478 26.9682 207.197 26.4648 207.163C26.0416 207.134 25.7532 207.064 25.382 206.839C24.5423 206.332 23.6089 206.054 22.7599 205.574C21.0089 204.587 19.1995 203.12 17.916 201.571C17.2509 200.768 16.7052 199.874 16.0525 199.062C15.4182 198.271 14.792 197.487 14.2372 196.636C13.1432 194.96 12.2727 193.144 11.6109 191.255C11.267 190.274 11.0957 189.633 11.9509 188.915C12.7575 188.238 13.5127 187.53 14.1846 186.716C14.5113 186.32 16.0025 184.865 14.8861 184.623C14.2814 184.491 13.3158 185.511 12.8613 185.881C12.1212 186.484 11.3958 187.067 10.5396 187.499C9.57019 187.987 9.55234 188.607 9.56629 189.621C9.59548 191.711 10.3738 193.748 11.1807 195.657C12.0103 197.618 13.0553 199.48 14.3053 201.203C16.6968 204.5 19.3718 207.845 23.0895 209.689C24.9274 210.601 26.9129 211.082 28.944 211.309C30.1434 211.443 31.3524 211.491 32.5581 211.461C33.0672 211.448 33.7324 211.517 34.2205 211.362C34.6165 211.237 34.6813 210.943 34.8244 210.584C35.1641 209.733 36.0518 209.271 36.6519 208.589C37.293 207.861 37.9653 207.175 38.6245 206.464C40.0527 204.924 40.9981 203.111 42.1458 201.372C42.7806 200.41 43.4674 199.468 44.0214 198.456C44.4695 197.635 45.0267 196.556 45.1829 195.631C45.3069 194.892 44.7128 193.819 43.8957 193.778C43.4695 193.757 43.1281 194.092 42.7083 194.135C42.5822 194.149 42.1522 194.062 42.0016 194.124C42.6881 192.456 43.7058 190.886 44.4773 189.263C44.9126 188.348 45.3249 187.422 45.7078 186.483C45.999 185.769 46.3454 185.184 45.6058 184.676Z" fill="#E5E5E5"/>
<path fill-rule="evenodd" clip-rule="evenodd" d="M56.59 52.6619C57.9389 55.7766 60.1074 58.2593 62.322 60.7874C63.4938 62.1253 64.69 63.3402 66.1107 64.4167C67.4334 65.4185 68.772 66.3965 70.1074 67.3805C68.7674 69.1023 67.262 70.6768 65.7689 72.2687C64.3896 73.7391 63.0149 75.242 62.1059 77.0581C62.0117 76.1889 61.4474 75.6515 60.6869 75.2969C59.7376 74.8549 58.8648 74.3738 58.0402 73.7217C56.2903 72.3381 54.662 70.6892 53.1718 69.0343C50.1407 65.6682 48.2092 61.4345 46.103 57.4754C49.5984 55.8712 53.0946 54.2669 56.59 52.6619ZM45.3868 60.5192C45.8986 61.9581 46.6407 63.3434 47.3194 64.7104C47.9881 66.0575 48.6814 67.3964 49.4628 68.6829C50.9473 71.1281 52.762 73.4068 55.0764 75.122C56.2092 75.9615 57.4239 76.7981 58.6842 77.4378C59.28 77.7396 59.9335 77.9695 60.6115 77.9309C61.0266 77.9072 61.6012 77.5395 61.9232 77.8675C62.2529 78.2033 62.1435 78.8756 62.836 78.5497C63.4041 78.2816 63.904 77.7113 64.3219 77.2643C65.386 76.1265 66.4547 74.9824 67.4763 73.8067C68.4663 72.6672 69.2796 71.369 70.1155 70.1158C70.5767 69.424 71.0333 68.729 71.491 68.0344C71.8183 67.5374 72.2844 67.0401 72.26 66.4106C72.2132 65.1825 70.7071 64.3498 69.8513 63.6668C68.8025 62.8295 67.8284 61.9694 66.935 60.9677C65.9846 59.9015 64.7877 59.0088 63.7594 58.0078C62.6426 56.9218 61.6341 55.7405 60.6334 54.5499C59.8389 53.6045 59.0515 52.6357 58.3785 51.601C57.8525 50.792 57.2591 50.1714 56.2075 50.3213C55.3846 50.5118 54.5593 50.6471 53.7662 50.9496C52.9688 51.2536 52.2012 51.6375 51.4262 51.9946C50.0217 52.641 48.7295 53.4589 47.3651 54.1776C47.0558 54.3406 46.7494 54.5088 46.4689 54.7182C46.3141 54.8333 46.1572 55.0558 45.9925 55.1383C45.8706 55.1992 45.7867 55.1854 45.6471 55.2247C45.0942 55.3799 44.8859 55.6884 44.6092 56.1737C44.1651 56.954 44.1775 57.3734 44.5841 58.1729C44.9557 58.9036 45.1122 59.7485 45.3868 60.5192Z" fill="#E5E5E5"/>
<path fill-rule="evenodd" clip-rule="evenodd" d="M100.772 99.2222C101.118 99.7769 101.683 99.5038 102.006 99.1092C102.988 97.9105 103.906 96.6141 104.788 95.3385C105.682 94.0442 106.501 92.7332 107.515 91.525C108.535 90.3097 109.581 89.1117 110.639 87.929C114.59 83.5083 118.646 79.1921 123.003 75.176C124.068 74.1944 125.164 73.2356 126.187 72.209C126.637 71.7574 127.185 71.2562 127.164 70.5616C127.149 70.0664 126.826 69.4557 126.394 69.2028C125.454 68.6534 124.192 69.9916 123.494 70.4914C122.96 70.8736 122.387 71.0738 121.827 71.388C121.336 71.6628 120.845 72.0833 120.425 72.4584C119.48 73.3022 118.462 74.0191 117.504 74.8405C116.531 75.6747 115.671 76.6322 114.716 77.4859C113.694 78.3987 112.599 79.184 111.689 80.2236C110.792 81.2494 110.035 82.3688 109.099 83.367C107.106 85.4912 105.477 87.8918 103.778 90.2537C102.959 91.3907 102.341 92.6362 101.788 93.9227C101.513 94.5631 101.24 95.2068 100.979 95.8536C100.732 96.4671 100.712 97.0937 100.598 97.7369C100.741 97.7653 100.634 99.0011 100.772 99.2222Z" fill="#E5E5E5"/>
<path fill-rule="evenodd" clip-rule="evenodd" d="M321.427 203.934C322.175 203.035 322.666 201.738 323.21 200.7C323.793 199.589 324.333 198.561 324.58 197.323C324.699 196.728 324.77 196.119 324.905 195.528C325.034 194.969 325.217 194.476 325.164 193.892C325.109 193.282 324.826 191.445 323.899 191.648C323.361 191.766 323.469 192.342 323.466 192.763C323.462 193.246 323.406 193.726 323.264 194.188C322.929 195.28 322.13 196.243 321.624 197.268C321.134 198.261 320.553 199.165 319.821 199.997C319.115 200.798 318.327 201.556 317.499 202.23C316.773 202.822 315.896 203.269 315.367 204.071C315.05 204.552 314.998 204.696 314.416 204.828C313.947 204.935 313.506 205.107 313.111 205.387C312.664 205.704 312.346 206.084 311.822 206.293C311.366 206.474 310.884 206.583 310.424 206.753C309.361 207.145 308.432 207.808 307.346 208.179C306.784 208.371 306.213 208.535 305.644 208.706C305.189 208.842 304.65 208.935 304.274 209.243C303.642 209.76 303.287 211.079 303.84 211.766C304.436 212.505 305.832 212.043 306.606 211.948C306.617 211.998 306.626 212.049 306.637 212.099C307.941 211.837 309.3 211.682 310.568 211.273C311.238 211.056 311.84 210.747 312.452 210.405C312.971 210.116 313.502 210.013 314.057 209.828C314.553 209.664 314.949 209.413 315.259 208.985C315.655 208.436 315.823 208.6 316.434 208.466C317.416 208.25 318.263 207.135 318.938 206.461C319.761 205.64 320.684 204.828 321.427 203.934Z" fill="#E5E5E5"/>
<path fill-rule="evenodd" clip-rule="evenodd" d="M133.782 45.5156C134.011 45.1529 134.811 44.8245 135.178 44.5883C135.679 44.2659 136.174 43.9365 136.657 43.588C137.534 42.955 138.147 43.3708 138.924 43.9772C140.362 45.0966 140.939 46.6002 140.831 48.3791C140.835 48.8988 140.975 49.7684 140.574 50.1963C140.192 50.6065 139.397 50.5661 138.892 50.6681C138.23 50.8023 137.231 51.6394 136.546 51.3946C135.945 51.1796 136.158 50.1077 136.11 49.6348C136.019 48.7518 135.725 47.897 135.183 47.1836C134.903 46.817 134.569 46.5053 134.201 46.2265C133.92 46.0129 133.555 45.8759 133.782 45.5156ZM131.148 48.1882C131.714 48.2867 132.297 48.5492 132.827 48.7638C133.178 48.9062 133.637 49.0397 133.921 49.2923C134.392 49.7117 134.201 50.373 134.31 50.9217C134.375 51.2426 134.539 51.5189 134.421 51.8523C134.282 52.2415 133.874 52.3085 133.668 52.6245C133.365 53.0874 133.755 53.7417 134.017 54.1366C134.47 54.822 135.089 54.4721 135.788 54.3693C136.631 54.2454 137.496 54.2114 138.307 53.934C138.968 53.7084 139.516 53.1852 140.02 53.8809C140.209 54.1409 140.247 54.37 140.617 54.2726C140.925 54.1915 141.238 53.7739 141.449 53.5599C142.766 52.2267 143.08 50.4053 143.101 48.6083C143.165 46.6126 142.439 44.7378 141.411 43.0513C141.195 42.6967 140.979 42.2876 140.656 42.0124C140.342 41.7442 139.933 41.6387 139.649 41.3256C139.225 40.8587 139.323 39.9133 138.646 39.7075C137.934 39.49 136.91 40.3536 136.371 40.7234C135.612 41.2437 134.869 41.786 134.139 42.3439C132.573 43.5387 130.824 44.6828 129.409 46.0491C128.929 46.5127 128.733 47.3317 129.214 47.885C129.696 48.4386 130.52 48.0787 131.148 48.1882Z" fill="#E5E5E5"/>
<path fill-rule="evenodd" clip-rule="evenodd" d="M215.152 191.156C214.849 189.393 214.337 187.669 213.715 185.989C213.313 184.901 212.395 183.028 210.928 183.136C209.314 183.255 210.396 185.362 210.553 186.2C211.166 189.478 211.521 192.831 212.006 196.132C212.245 197.767 212.318 199.452 212.704 201.062C212.893 201.846 213.161 202.612 213.492 203.35C213.702 203.82 213.954 204.432 214.481 204.644C216.081 205.288 215.681 202.475 215.663 201.782C215.62 200.085 215.58 198.388 215.538 196.69L215.669 196.686C215.426 194.846 215.468 192.992 215.152 191.156Z" fill="#E5E5E5"/>
<path fill-rule="evenodd" clip-rule="evenodd" d="M24.9711 222.029C24.0957 222.314 23.4456 222.534 22.4929 222.444C21.8253 222.38 21.1648 222.244 20.4995 222.161C18.784 221.945 17.1484 221.472 15.5739 220.765C14.1426 220.123 12.8021 219.349 11.6205 218.318C10.9971 217.775 10.4337 217.177 9.88003 216.566C9.48323 216.127 9.11696 215.798 8.50098 215.72C8.66073 216.606 8.84776 217.305 9.27087 218.11C9.61053 218.756 9.99922 219.377 10.4359 219.962C11.3286 221.158 12.4242 222.199 13.6623 223.041C14.879 223.869 16.2477 224.572 17.6826 224.935C18.4834 225.137 19.3032 225.258 20.114 225.414C20.8797 225.56 21.6243 225.708 22.4062 225.601C23.1378 225.501 23.909 225.475 24.6211 225.269C25.1838 225.106 25.72 224.748 26.1999 224.422C27.1354 223.785 26.116 221.655 24.9711 222.029Z" fill="#E5E5E5"/>
<path fill-rule="evenodd" clip-rule="evenodd" d="M53.5373 22.6147C53.9723 23.1977 54.9064 23.201 54.8444 22.3467C54.7884 21.5633 54.5451 20.7914 54.2922 20.0534C54.0343 19.3 54.0874 18.4814 54.0726 17.6947C54.0375 15.8162 54.0988 13.9965 54.4519 12.1474C54.7906 10.3678 55.0095 8.56663 55.4062 6.79748C55.7951 5.06127 56.5 3.42008 56.9339 1.69858C57.0685 1.16686 57.1762 0.129192 56.398 0.00776682C55.7508 -0.0930946 55.3694 0.814004 55.1186 1.24258C54.2844 2.66802 53.385 3.98607 52.8902 5.57439C52.4438 7.00537 52.107 8.52876 51.9504 10.0191C51.7868 11.5814 51.8112 13.1595 51.7156 14.7263C51.8718 16.5467 51.7889 18.5617 52.3737 20.3067C52.6376 21.0923 53.0379 21.9453 53.5373 22.6147Z" fill="#E5E5E5"/>
<path fill-rule="evenodd" clip-rule="evenodd" d="M297.777 29.7706C297.521 30.3852 297.396 31.0403 297.836 31.6175C298.634 32.665 299.905 30.2796 300.098 29.6137C300.518 28.1703 301.043 26.7162 301.278 25.2253C301.518 23.7049 301.404 22.0701 301.441 20.5289C301.314 18.6999 301.071 16.8755 300.634 15.0962C300.248 13.5183 299.838 11.8917 298.553 10.8283C298.018 10.3859 297.651 10.7204 297.576 11.3515C297.494 12.044 297.675 12.7407 297.991 13.3475C298.729 14.7704 298.731 16.4341 298.896 18.025C299.225 21.1886 299.41 24.3425 298.581 27.4463C298.369 28.2421 298.093 29.0129 297.777 29.7706Z" fill="#E5E5E5"/>
<path fill-rule="evenodd" clip-rule="evenodd" d="M26.4189 65.1153C26.6024 65.8333 26.8096 66.546 27.0742 67.2392C27.586 68.5778 28.2477 69.864 29.0652 71.0418C30.4138 72.9857 32.1937 74.8323 34.1256 76.1992C34.7625 76.6501 36.3087 77.9101 37.1365 77.4896C38.2686 76.9144 36.7536 75.4465 36.2938 75.0168C35.3452 74.1295 34.4019 73.2354 33.4427 72.3591C32.4806 71.4803 31.7648 70.3542 31.006 69.3015C30.2416 68.2409 29.4946 67.1673 28.8024 66.0579C28.4439 65.4841 28.1319 64.8822 27.7759 64.308C27.4681 63.8111 27.0118 63.4703 26.6155 63.0513C26.2853 63.2085 26.3239 63.1809 26.2389 63.4802C26.2024 63.6088 26.2138 63.8702 26.2163 63.9882C26.2226 64.3768 26.3232 64.7409 26.4189 65.1153Z" fill="#E5E5E5"/>
<path fill-rule="evenodd" clip-rule="evenodd" d="M107.695 76.2539C109.491 74.6273 111.462 73.2529 113.157 71.5201C113.584 71.084 113.914 70.829 113.544 70.2332C113.298 69.8354 113.015 69.6339 112.598 69.9063C111.602 70.558 110.653 71.3586 109.693 72.0691C107.724 73.526 105.683 74.9546 103.907 76.6442C103.102 77.4094 102.359 78.2418 101.734 79.1596C101.079 80.1227 100.584 81.0996 101.316 82.1789C103.451 80.2148 105.545 78.2003 107.695 76.2539Z" fill="#E5E5E5"/>
<path fill-rule="evenodd" clip-rule="evenodd" d="M326.449 210.064C326.127 209.985 325.592 210.34 325.353 210.497C324.401 211.125 323.415 211.705 322.452 212.316C321.565 212.88 320.689 213.46 319.816 214.045C319.089 214.531 318.612 215.13 318.868 216.049C318.985 216.468 319.178 216.959 319.665 216.719C320.022 216.543 320.33 216.371 320.723 216.232C321.711 215.882 322.708 215.537 323.632 215.032C325.232 214.158 326.73 212.804 326.945 210.898C326.826 210.628 326.792 210.148 326.449 210.064Z" fill="#E5E5E5"/>
<path fill-rule="evenodd" clip-rule="evenodd" d="M221.287 190.83C220.961 190.475 220.563 190.471 220.39 190.9C220.214 191.341 220.444 192.099 220.507 192.537C220.61 193.255 220.722 193.971 220.845 194.686C220.917 195.104 220.969 196.401 221.517 196.569C222.357 196.829 222.378 194.784 222.45 194.368C222.273 193.764 222.105 193.158 221.927 192.555C221.77 192.026 221.675 191.254 221.287 190.83Z" fill="#E5E5E5"/>
<path fill-rule="evenodd" clip-rule="evenodd" d="M79.7723 155.569C79.5711 155.473 79.4159 155.515 79.3734 155.275C79.3376 155.076 79.6501 154.869 79.6975 154.699C79.8686 154.085 79.2246 154.731 78.9912 154.924C79.2122 155.472 79.4329 156.019 79.6557 156.565C79.9065 156.466 80.1577 156.365 80.4081 156.264C80.1683 155.939 80.1382 155.743 79.7723 155.569Z" fill="#E5E5E5"/>
<path fill-rule="evenodd" clip-rule="evenodd" d="M197.308 56.6258C197.727 56.7636 198.34 56.5762 198.767 56.4972C199.179 56.4207 199.642 56.3063 200.035 56.1533C201.004 55.775 200.922 54.6284 200.698 53.7372C200.397 52.5367 199.725 51.3873 199.193 50.2793C198.916 49.7026 198.649 49.1259 198.398 48.5372C198.208 48.0927 197.958 47.4696 197.382 47.4653C196.494 47.4583 196.928 49.5492 197.069 50.0466C197.424 51.3001 198.083 52.4552 198.633 53.6252C198.125 53.6599 197.601 53.7269 197.094 53.7095C196.567 53.6922 196.423 53.7081 196.294 54.2968C196.108 55.1487 196.364 56.3155 197.308 56.6258Z" fill="#E5E5E5"/>
<path fill-rule="evenodd" clip-rule="evenodd" d="M189.31 46.3805C190.266 46.3213 191.218 46.2211 192.169 46.1141C192.869 46.0351 194.091 46.0213 194.588 45.4676C194.929 45.0879 194.87 44.2796 194.57 43.886C194.216 43.4213 193.388 43.6044 192.862 43.6044C191.442 43.6282 190.064 43.817 188.794 44.4432C188.328 44.6731 187.279 45.0914 187.39 45.7181C187.53 46.5051 188.724 46.4162 189.31 46.3805Z" fill="#E5E5E5"/>
<path fill-rule="evenodd" clip-rule="evenodd" d="M193.292 57.4068C192.494 57.6069 192.647 58.9742 192.894 59.5491C193.263 60.4098 194.192 60.6185 195.046 60.5636C195.456 60.5225 196.047 60.6702 196.354 60.3266C196.658 59.9869 196.654 59.3057 196.439 58.9257C196.154 58.4227 195.417 58.1379 194.918 57.9041C194.484 57.7008 193.793 57.2814 193.292 57.4068Z" fill="#E5E5E5"/>
<path fill-rule="evenodd" clip-rule="evenodd" d="M193.398 50.2987C193.461 49.5155 193.013 47.7557 191.968 47.8216C191.471 47.8528 191.048 48.5637 190.957 49.0005C190.862 49.4606 190.994 49.9264 191.115 50.367C191.313 51.0939 191.61 52.2157 192.577 52.0549C193.378 51.921 193.4 50.9625 193.398 50.2987Z" fill="#E5E5E5"/>
<path fill-rule="evenodd" clip-rule="evenodd" d="M200.934 51.0875C201.145 51.293 201.454 51.446 201.75 51.3111C202.188 51.1127 202.112 50.5884 202.112 50.2147C202.161 50.1992 202.211 50.1832 202.259 50.1673C202.011 49.4797 201.849 48.0398 200.987 47.845C200.142 47.6541 200.08 48.5931 200.16 49.179C200.244 49.8042 200.458 50.6242 200.934 51.0875Z" fill="#E5E5E5"/>
<path fill-rule="evenodd" clip-rule="evenodd" d="M174.359 51.0078C173.939 51.05 173.149 51.2448 173.217 51.7715C173.316 52.5391 174.52 52.6762 175.131 52.7506C175.855 52.8391 176.859 52.7658 176.17 51.8583C175.751 51.3057 175.049 51.0617 174.359 51.0078Z" fill="#E5E5E5"/>
<path fill-rule="evenodd" clip-rule="evenodd" d="M138.951 142.75C138.8 143.044 138.65 143.338 138.5 143.632C138.971 143.693 139.444 143.753 139.916 143.813C139.936 143.439 139.202 142.974 138.951 142.75Z" fill="#E5E5E5"/>
</svg>
