<svg width="26" height="22" viewBox="0 0 26 22" fill="none" xmlns="http://www.w3.org/2000/svg">
<path d="M25 10.6L25.6788 11.2788C26.0537 10.9039 26.0537 10.2961 25.6788 9.92115L25 10.6ZM10.6 9.63998H9.64V11.56H10.6V9.63998ZM19.5212 14.7212C19.1463 15.0961 19.1463 15.7039 19.5212 16.0788C19.8961 16.4537 20.5039 16.4537 20.8788 16.0788L19.5212 14.7212ZM20.8788 5.12115L20.2 4.44233L18.8424 5.79998L19.5212 6.4788L20.8788 5.12115ZM1 1V0.04C0.469807 0.04 0.04 0.469807 0.04 1L1 1ZM10.6 1.96H11.56V0.04H10.6V1.96ZM10.6 21.16H11.56V19.24H10.6V21.16ZM1 20.2H0.04C0.04 20.7302 0.469807 21.16 1 21.16L1 20.2ZM25 9.63998H10.6V11.56H25V9.63998ZM24.3212 9.92115L19.5212 14.7212L20.8788 16.0788L25.6788 11.2788L24.3212 9.92115ZM19.5212 6.4788L24.3212 11.2788L25.6788 9.92115L20.8788 5.12115L19.5212 6.4788ZM1 1.96H10.6V0.04H1V1.96ZM10.6 19.24H1V21.16H10.6V19.24ZM1.96 20.2V1H0.04V20.2H1.96Z" fill="#CCF148"/>
</svg>
