<svg width="22" height="14" viewBox="0 0 22 14" fill="none" xmlns="http://www.w3.org/2000/svg">
<path d="M15 0C14.0807 -1.36979e-08 13.1705 0.18106 12.3212 0.532843C11.4719 0.884626 10.7003 1.40024 10.0503 2.05025C9.40024 2.70026 8.88463 3.47194 8.53284 4.32122C8.18106 5.17049 8 6.08075 8 7C8 7.91925 8.18106 8.8295 8.53284 9.67878C8.88463 10.5281 9.40024 11.2997 10.0503 11.9497C10.7003 12.5998 11.4719 13.1154 12.3212 13.4672C13.1705 13.8189 14.0807 14 15 14C15.9193 14 16.8295 13.8189 17.6788 13.4672C18.5281 13.1154 19.2997 12.5998 19.9497 11.9497C20.5998 11.2997 21.1154 10.5281 21.4672 9.67878C21.8189 8.8295 22 7.91925 22 7C22 6.08075 21.8189 5.17049 21.4672 4.32122C21.1154 3.47194 20.5998 2.70026 19.9497 2.05025C19.2997 1.40024 18.5281 0.884626 17.6788 0.532843C16.8295 0.18106 15.9193 -1.36979e-08 15 0Z" fill="#FF9800"/>
<path d="M7 0C6.08075 -1.36979e-08 5.1705 0.18106 4.32122 0.532843C3.47194 0.884626 2.70026 1.40024 2.05025 2.05025C1.40024 2.70026 0.884626 3.47194 0.532843 4.32122C0.18106 5.17049 0 6.08075 0 7C0 7.91925 0.18106 8.8295 0.532843 9.67878C0.884626 10.5281 1.40024 11.2997 2.05025 11.9497C2.70026 12.5998 3.47194 13.1154 4.32122 13.4672C5.1705 13.8189 6.08075 14 7 14C7.91925 14 8.8295 13.8189 9.67878 13.4672C10.5281 13.1154 11.2997 12.5998 11.9497 11.9497C12.5998 11.2997 13.1154 10.5281 13.4672 9.67878C13.8189 8.8295 14 7.91925 14 7C14 6.08075 13.8189 5.17049 13.4672 4.32122C13.1154 3.47194 12.5998 2.70026 11.9497 2.05025C11.2997 1.40024 10.5281 0.884626 9.67878 0.532843C8.8295 0.18106 7.91925 -1.36979e-08 7 0Z" fill="#D50000"/>
<path d="M8 6.99977C8 9.37727 9.188 11.4748 11 12.7398C12.812 11.4748 14 9.37727 14 6.99977C14 4.62227 12.812 2.52477 11 1.25977C9.188 2.52477 8 4.62227 8 6.99977Z" fill="#FF3D00"/>
</svg>
