<svg width="20" height="21" viewBox="0 0 20 21" fill="none" xmlns="http://www.w3.org/2000/svg">
<path d="M19.6745 18.9387C20.1085 19.3927 20.1085 20.1286 19.6745 20.5826C19.2406 21.0366 18.537 21.0366 18.1031 20.5826L14.3395 16.6454C12.8343 17.8694 10.943 18.5983 8.88905 18.5983C3.98 18.5983 0 14.435 0 9.29916C0 4.16332 3.97971 0 8.88905 0C13.7984 0 17.7781 4.16332 17.7781 9.29916C17.7781 11.4481 17.0813 13.4267 15.9113 15.0011L19.6745 18.9387ZM8.88881 16.2735C12.5707 16.2735 15.5555 13.151 15.5555 9.29926C15.5555 5.44748 12.5707 2.32501 8.88881 2.32501C5.2069 2.32501 2.22214 5.44748 2.22214 9.29926C2.22214 13.151 5.2069 16.2735 8.88881 16.2735Z" fill="white"/>
</svg>
