<svg width="35" height="18" viewBox="0 0 35 18" fill="none" xmlns="http://www.w3.org/2000/svg">
<g clip-path="url(#clip0_376_5082)">
<rect width="35" height="18" fill="#343A40"/>
<path d="M-0.518635 -6C-3.0853 -6 -5.1853 -4.05 -5.1853 -1.66667V20.8667C-5.1853 23.25 -3.0853 25.2 -0.518635 25.2H36.8147C39.3814 25.2 41.4814 23.25 41.4814 20.8667V-1.66667C41.4814 -4.05 39.3814 -6 36.8147 -6H-0.518635ZM-0.518635 -4.26667H36.8147C38.3715 -4.26667 39.6147 -3.11224 39.6147 -1.66667V20.8667C39.6147 22.3122 38.3715 23.4667 36.8147 23.4667H-0.518635C-2.07541 23.4667 -3.31864 22.3122 -3.31864 20.8667V-1.66667C-3.31864 -3.11224 -2.07541 -4.26667 -0.518635 -4.26667ZM22.523 4.75208C19.6282 4.75208 18.148 6.07578 18.148 7.75834C18.148 10.8018 21.9397 10.3922 21.9397 11.9563C21.9397 12.2203 21.721 12.85 20.1314 12.85C18.5381 12.85 17.5064 12.2813 17.5064 12.2813L17.0105 14.3396C17.0105 14.3396 18.0423 14.8813 20.0147 14.8813C21.9871 14.8813 24.7105 13.4797 24.7105 11.4417C24.7105 8.99063 20.9189 8.79766 20.9189 7.70417C20.9189 7.14558 21.3855 6.72917 22.7564 6.72917C23.646 6.72917 24.6522 7.35209 24.6522 7.35209L25.1189 5.23958C25.1189 5.23958 23.7954 4.75208 22.523 4.75208ZM10.1855 4.94167L7.6772 11.8208C7.6772 11.8208 7.50584 11.2352 7.44387 10.8729C6.01105 7.88698 3.68137 6.78333 3.68137 6.78333L5.89803 14.5833H8.93137L13.1314 4.94167H10.1855ZM14.2105 4.94167L12.5772 14.5833H15.348L17.0105 4.94167H14.2105ZM29.173 4.94167L24.6522 14.5833H27.3939L27.948 13.2021H31.3897L31.6814 14.5833H34.1897L32.0605 4.94167H29.173ZM0.648031 4.96875C0.648031 4.96875 6.06574 6.52604 7.3272 10.3042L6.39387 5.91667C6.39387 5.91667 5.99282 4.96875 4.90637 4.96875H0.648031ZM30.223 7.73125L30.9814 11.3604H28.7064L30.223 7.73125Z" fill="white"/>
</g>
<defs>
<clipPath id="clip0_376_5082">
<rect width="35" height="18" fill="white"/>
</clipPath>
</defs>
</svg>
